<svg width="60" height="60" viewBox="0 0 60 60" fill="none" xmlns="http://www.w3.org/2000/svg">
<g id="el:envelope-alt" clip-path="url(#clip0_516_266)">
<path id="Vector" d="M30 0C13.4315 0 0 13.4315 0 30C0 46.5686 13.4315 60 30 60C46.5686 60 60 46.5686 60 30C60 13.4315 46.5686 0 30 0ZM14.6484 18.3948H45.3516V22.7124L30 31.4649L14.6484 22.7124V18.3948ZM14.6484 25.4736L22.4671 29.9305L14.6484 38.1262V25.4736ZM45.3516 25.4736V38.1263L37.533 29.9304L45.3516 25.4736ZM24.6167 31.1573L30 34.2261L35.3833 31.1572L45.3516 41.6052H14.6484L24.6167 31.1573Z" fill="#F56767"/>
</g>
<defs>
<clipPath id="clip0_516_266">
<rect width="60" height="60" fill="white"/>
</clipPath>
</defs>
</svg>
