<svg width="60" height="60" viewBox="0 0 60 60" fill="none" xmlns="http://www.w3.org/2000/svg">
<g id="entypo-social:linkedin-with-circle">
<path id="Vector" d="M30 1.19995C14.094 1.19995 1.2 14.094 1.2 30C1.2 45.906 14.094 58.8 30 58.8C45.906 58.8 58.8 45.906 58.8 30C58.8 14.094 45.906 1.19995 30 1.19995ZM22.95 41.937H17.118V23.169H22.95V41.937ZM19.998 20.865C18.156 20.865 16.965 19.5599 16.965 17.9459C16.965 16.299 18.192 15.033 20.073 15.033C21.954 15.033 23.106 16.299 23.142 17.9459C23.142 19.5599 21.954 20.865 19.998 20.865ZM44.25 41.937H38.418V31.536C38.418 29.115 37.572 27.471 35.463 27.471C33.852 27.471 32.895 28.584 32.472 29.655C32.316 30.036 32.277 30.576 32.277 31.113V41.934H26.442V29.154C26.442 26.811 26.367 24.852 26.289 23.166H31.356L31.623 25.773H31.74C32.508 24.549 34.389 22.743 37.536 22.743C41.373 22.743 44.25 25.314 44.25 30.84V41.937Z" fill="#F56767"/>
</g>
</svg>
