<svg width="40" height="40" viewBox="0 0 40 40" fill="none" xmlns="http://www.w3.org/2000/svg">
<path d="M3.75 11.25C3.75 25.0567 14.9433 36.25 28.75 36.25H32.5C33.4946 36.25 34.4484 35.8549 35.1516 35.1516C35.8549 34.4484 36.25 33.4946 36.25 32.5V30.2133C36.25 29.3533 35.665 28.6033 34.83 28.395L27.4583 26.5517C26.725 26.3683 25.955 26.6433 25.5033 27.2467L23.8867 29.4017C23.4167 30.0283 22.605 30.305 21.87 30.035C19.1415 29.0319 16.6636 27.4476 14.608 25.392C12.5524 23.3364 10.9681 20.8585 9.965 18.13C9.695 17.395 9.97167 16.5833 10.5983 16.1133L12.7533 14.4967C13.3583 14.045 13.6317 13.2733 13.4483 12.5417L11.605 5.17C11.5036 4.76449 11.2695 4.40451 10.9401 4.14723C10.6106 3.88995 10.2047 3.75014 9.78667 3.75H7.5C6.50544 3.75 5.55161 4.14509 4.84835 4.84835C4.14509 5.55161 3.75 6.50544 3.75 7.5V11.25Z" stroke="#F56767" stroke-width="2.5" stroke-linecap="round" stroke-linejoin="round"/>
</svg>
