<svg width="68" height="58" viewBox="0 0 68 58" fill="none" xmlns="http://www.w3.org/2000/svg">
<path d="M21.8758 2.40087H4.37515C3.21479 2.40087 2.10195 2.78061 1.28145 3.45656C0.460952 4.1325 0 5.04927 0 6.0052V54.0629C0 55.0188 0.460952 55.9356 1.28145 56.6115C2.10195 57.2875 3.21479 57.6672 4.37515 57.6672H21.8758C23.0361 57.6672 24.149 57.2875 24.9695 56.6115C25.79 55.9356 26.2509 55.0188 26.2509 54.0629V6.0052C26.2509 5.04927 25.79 4.1325 24.9695 3.45656C24.149 2.78061 23.0361 2.40087 21.8758 2.40087ZM2.91677 14.4153H23.3341V45.6528H2.91677V14.4153ZM4.37515 4.80376H21.8758C22.2626 4.80376 22.6335 4.93034 22.907 5.15565C23.1805 5.38097 23.3341 5.68656 23.3341 6.0052V12.0124H2.91677V6.0052C2.91677 5.68656 3.07042 5.38097 3.34392 5.15565C3.61742 4.93034 3.98836 4.80376 4.37515 4.80376ZM21.8758 55.2643H4.37515C3.98836 55.2643 3.61742 55.1377 3.34392 54.9124C3.07042 54.6871 2.91677 54.3815 2.91677 54.0629V48.0557H23.3341V54.0629C23.3341 54.3815 23.1805 54.6871 22.907 54.9124C22.6335 55.1377 22.2626 55.2643 21.8758 55.2643ZM66.9909 50.2723L54.8899 2.87244C54.7729 2.40737 54.5454 1.96595 54.2205 1.57356C53.8957 1.18116 53.4799 0.84552 52.9971 0.585936C52.5143 0.326352 51.974 0.147941 51.4072 0.0609584C50.8404 -0.0260245 50.2583 -0.0198639 49.6944 0.0790864L32.6277 3.09771C31.4932 3.30433 30.5035 3.87128 29.8735 4.67546C29.2434 5.47964 29.0238 6.45612 29.2625 7.39287L41.3634 54.7928C41.4805 55.2578 41.708 55.6992 42.0328 56.0916C42.3577 56.484 42.7734 56.8197 43.2562 57.0793C43.7391 57.3388 44.2794 57.5173 44.8462 57.6042C45.413 57.6912 45.995 57.6851 46.5589 57.5861L63.6257 54.5645C64.7603 54.3593 65.7506 53.7931 66.3809 52.9892C67.0112 52.1853 67.2304 51.2088 66.9909 50.2723ZM36.6528 24.6606L56.5707 21.1374L62.0397 42.484L42.1218 46.0102L36.6528 24.6606ZM34.2319 15.1812L54.1535 11.655L55.9764 18.7855L36.0549 22.3088L34.2319 15.1812ZM33.2439 5.44953L50.3143 2.42791C50.4149 2.41001 50.5176 2.40095 50.6205 2.40087C50.8977 2.4016 51.1686 2.46836 51.4007 2.5931C51.5653 2.68022 51.707 2.79371 51.8172 2.92684C51.9274 3.05997 52.004 3.21001 52.0424 3.36803L53.5519 9.30917L33.6303 12.8294L32.1173 6.90628C32.0325 6.59005 32.1036 6.25905 32.3148 5.98593C32.526 5.71281 32.8602 5.5199 33.2439 5.44953ZM63.0131 52.2157L45.9391 55.2373C45.5623 55.3034 45.1691 55.244 44.8453 55.0721C44.6807 54.985 44.5391 54.8715 44.4289 54.7384C44.3186 54.6052 44.242 54.4552 44.2036 54.2972L42.7015 48.356L62.623 44.8328L64.1361 50.7589C64.2209 51.0747 64.1504 51.4054 63.9399 51.6784C63.7294 51.9514 63.3962 52.1446 63.0131 52.2157Z" fill="#FEF6E1"/>
</svg>
