<svg width="64" height="53" viewBox="0 0 64 53" fill="none" xmlns="http://www.w3.org/2000/svg">
<path d="M61.6667 34.9527V26.7145C61.6667 23.469 60.8908 20.2552 59.3831 17.2567C57.8755 14.2582 55.6657 11.5337 52.8799 9.23871C50.0942 6.94376 46.787 5.1233 43.1473 3.88128C39.5075 2.63926 35.6064 2 31.6667 2C27.7271 2 23.826 2.63926 20.1862 3.88128C16.5465 5.1233 13.2393 6.94376 10.4535 9.23871C7.66779 11.5337 5.458 14.2582 3.95036 17.2567C2.44272 20.2552 1.66675 23.469 1.66675 26.7145V34.9527" stroke="#FEF6E1" stroke-width="3.33333" stroke-linecap="round"/>
<path d="M1.66667 34.9527V33.5797H0V34.9527H1.66667ZM1.66667 36.3257H11.6667V33.5797H1.66667V36.3257ZM13.3333 37.6987V45.9369H16.6667V37.6987H13.3333ZM3.33333 45.9369V34.9527H0V45.9369H3.33333ZM8.33333 50.056C7.00725 50.056 5.73548 49.622 4.7978 48.8495C3.86012 48.0771 3.33333 47.0294 3.33333 45.9369H0C0 47.7577 0.877974 49.5038 2.44078 50.7913C4.00358 52.0788 6.1232 52.8021 8.33333 52.8021V50.056ZM13.3333 45.9369C13.3333 47.0294 12.8065 48.0771 11.8689 48.8495C10.9312 49.622 9.65942 50.056 8.33333 50.056V52.8021C10.5435 52.8021 12.6631 52.0788 14.2259 50.7913C15.7887 49.5038 16.6667 47.7577 16.6667 45.9369H13.3333ZM11.6667 36.3257C12.1087 36.3257 12.5326 36.4704 12.8452 36.7279C13.1577 36.9854 13.3333 37.3346 13.3333 37.6987H16.6667C16.6667 36.6063 16.1399 35.5586 15.2022 34.7861C14.2645 34.0136 12.9927 33.5797 11.6667 33.5797V36.3257ZM61.6667 34.9527H63.3333V33.5797H61.6667V34.9527ZM51.6667 36.3257H61.6667V33.5797H51.6667V36.3257ZM60 34.9527V45.9369H63.3333V34.9527H60ZM50 45.9369V37.6987H46.6667V45.9369H50ZM55 50.056C53.6739 50.056 52.4021 49.622 51.4645 48.8495C50.5268 48.0771 50 47.0294 50 45.9369H46.6667C46.6667 47.7577 47.5446 49.5038 49.1074 50.7913C50.6702 52.0788 52.7899 52.8021 55 52.8021V50.056ZM60 45.9369C60 47.0294 59.4732 48.0771 58.5355 48.8495C57.5978 49.622 56.3261 50.056 55 50.056V52.8021C57.2101 52.8021 59.3298 52.0788 60.8926 50.7913C62.4554 49.5038 63.3333 47.7577 63.3333 45.9369H60ZM51.6667 33.5797C50.3406 33.5797 49.0688 34.0136 48.1311 34.7861C47.1935 35.5586 46.6667 36.6063 46.6667 37.6987H50C50 37.3346 50.1756 36.9854 50.4882 36.7279C50.8007 36.4704 51.2246 36.3257 51.6667 36.3257V33.5797Z" fill="#FEF6E1"/>
</svg>
