<svg width="80" height="80" viewBox="0 0 80 80" fill="none" xmlns="http://www.w3.org/2000/svg">
<path d="M70 8.75C63.6593 8.75 56.5125 12.2625 48.75 19.1875C42.9781 24.3406 38.0031 30.3844 34.6875 34.7906C32.0453 33.8376 29.2125 33.5346 26.4286 33.9072C23.6446 34.2798 20.9912 35.3171 18.6926 36.9313C16.394 38.5455 14.5177 40.6893 13.2223 43.1816C11.9269 45.6738 11.2504 48.4412 11.25 51.25C11.25 61.6313 4.60622 66.25 4.30622 66.4625C4.08412 66.6117 3.91577 66.8283 3.82595 67.0804C3.73612 67.3325 3.72956 67.6067 3.80722 67.8628C3.88488 68.1189 4.04267 68.3433 4.25738 68.503C4.47209 68.6627 4.73238 68.7493 4.99997 68.75H28.75C31.5588 68.7496 34.3262 68.0731 36.8184 66.7777C39.3106 65.4822 41.4544 63.606 43.0687 61.3074C44.6829 59.0088 45.7201 56.3554 46.0927 53.5714C46.4653 50.7874 46.1623 47.9547 45.2093 45.3125C49.6187 41.9906 55.6593 37.0156 60.8125 31.25C67.7375 23.4875 71.25 16.3406 71.25 10C71.25 9.66848 71.1183 9.35054 70.8839 9.11612C70.6494 8.8817 70.3315 8.75 70 8.75ZM28.75 66.25H8.23435C10.5968 63.6531 13.75 58.775 13.75 51.25C13.75 48.2833 14.6297 45.3832 16.2779 42.9164C17.9261 40.4497 20.2688 38.5271 23.0097 37.3918C25.7506 36.2565 28.7666 35.9594 31.6763 36.5382C34.586 37.117 37.2588 38.5456 39.3566 40.6434C41.4544 42.7412 42.883 45.4139 43.4618 48.3236C44.0405 51.2334 43.7435 54.2494 42.6082 56.9903C41.4729 59.7311 39.5503 62.0738 37.0835 63.722C34.6168 65.3703 31.7167 66.25 28.75 66.25ZM37.0375 35.8406C38.3281 34.1406 39.95 32.0906 41.8156 29.9344C45.1772 31.996 48.004 34.8228 50.0656 38.1844C47.8968 40.0594 45.8593 41.6719 44.1593 42.9625C42.5298 39.9455 40.0545 37.4701 37.0375 35.8406ZM51.9656 36.5094C49.7967 33.0967 46.9032 30.2033 43.4906 28.0344C50.3125 20.4469 59.7687 12.0719 68.6937 11.3063C67.9281 20.2312 59.5531 29.6875 51.9656 36.5094Z" fill="#FEF6E1"/>
</svg>
