<svg width="65" height="65" viewBox="0 0 65 65" fill="none" xmlns="http://www.w3.org/2000/svg">
<g clip-path="url(#clip0_514_294)">
<path d="M57.5941 2.75031C57.7089 2.63501 57.7943 2.49382 57.8432 2.33861C57.892 2.18341 57.9029 2.01875 57.8748 1.85848C57.8467 1.69822 57.7806 1.54704 57.6819 1.41768C57.5832 1.28832 57.4548 1.18457 57.3077 1.11515C55.038 0.0432617 52.492 -0.299645 50.0196 0.133525C47.5471 0.566696 45.2694 1.7547 43.4993 3.53437C40.0502 7.00578 38.8457 12.4577 40.4544 17.0158L17.0158 40.4544C15.7137 39.9953 14.3421 39.7645 12.9614 39.7719C9.47988 39.7719 6.10395 41.1572 3.70098 43.5744C1.93707 45.3307 0.744858 47.5789 0.280551 50.0244C-0.183757 52.4699 0.101501 54.9986 1.09895 57.2792C1.16433 57.4319 1.26629 57.5661 1.39584 57.67C1.52539 57.774 1.67853 57.8444 1.84175 57.8751C2.00497 57.9058 2.17324 57.8959 2.3317 57.8462C2.49016 57.7964 2.63395 57.7085 2.75035 57.59L9.84145 50.4623C10.3086 49.9911 11.0622 49.9281 11.4522 50.3242L14.5133 53.5275C14.9582 53.9764 14.9379 54.6691 14.4686 55.1423L7.40395 62.2517C7.28913 62.3668 7.20369 62.5079 7.15483 62.6629C7.10596 62.818 7.09512 62.9825 7.1232 63.1426C7.15128 63.3028 7.21747 63.4538 7.31618 63.583C7.41489 63.7121 7.54322 63.8157 7.69035 63.8848C9.33415 64.6691 11.132 65.0771 12.9533 65.0792C16.1464 65.0792 19.1791 63.7955 21.4988 61.4636C24.9479 57.9942 26.1524 52.5423 24.5416 47.9842L47.9802 24.5436C49.2831 25.0025 50.6553 25.2333 52.0366 25.2261C55.5182 25.2261 58.8941 23.8408 61.2971 21.4236C63.061 19.6673 64.2532 17.4191 64.7175 14.9736C65.1818 12.5281 64.8965 9.99935 63.8991 7.71875C63.8337 7.56607 63.7318 7.43185 63.6022 7.32792C63.4727 7.22399 63.3195 7.15356 63.1563 7.12284C62.9931 7.09213 62.8248 7.10207 62.6663 7.1518C62.5079 7.20152 62.3641 7.2895 62.2477 7.40796L55.1566 14.5356C54.9375 14.7474 54.6436 14.8641 54.3389 14.8603C54.0342 14.8565 53.7433 14.7325 53.5296 14.5153L50.4847 11.4705C50.3761 11.3662 50.2896 11.241 50.2305 11.1026C50.1714 10.9641 50.1408 10.8151 50.1406 10.6645C50.1404 10.5139 50.1706 10.3648 50.2294 10.2262C50.2882 10.0876 50.3743 9.96221 50.4827 9.85765L57.5941 2.75031ZM49.0466 12.9066L52.0914 15.9514C53.3082 17.1742 55.3922 17.1803 56.5968 15.9697L62.5483 9.98968C63.0197 11.7467 63.0194 13.597 62.5472 15.3538C62.075 17.1106 61.1477 18.7117 59.8589 19.9956C57.8338 22.033 54.986 23.1989 52.0386 23.1989C50.6513 23.1989 49.3371 22.9389 48.1325 22.427C47.9464 22.3477 47.7407 22.3259 47.542 22.3642C47.3434 22.4026 47.1607 22.4994 47.0174 22.6423L22.6424 47.0173C22.4997 47.1599 22.4028 47.3418 22.3641 47.5397C22.3254 47.7377 22.3466 47.9426 22.425 48.1284C24.0561 52.0081 23.0629 57.0152 20.0627 60.0336C18.77 61.3448 17.1424 62.2764 15.3571 62.727C13.5717 63.1775 11.697 63.1298 9.93692 62.5889L15.9108 56.5764C17.1722 55.3069 17.1925 53.3386 15.9697 52.1117L12.9107 48.9084C11.7305 47.7202 9.63223 47.7933 8.40535 49.0344L2.45379 55.0144C1.98236 53.2574 1.98276 51.4071 2.45495 49.6503C2.92713 47.8935 3.8544 46.2923 5.14316 45.0084C7.16832 42.9711 10.0161 41.8052 12.9635 41.8052C14.3508 41.8052 15.665 42.0652 16.8696 42.577C17.0556 42.6569 17.2614 42.679 17.4602 42.6407C17.659 42.6023 17.8417 42.5051 17.9847 42.3617L42.3597 17.9867C42.5024 17.8442 42.5993 17.6623 42.638 17.4643C42.6767 17.2664 42.6555 17.0614 42.5771 16.8756C40.946 12.9959 41.9393 7.98687 44.9394 4.96843C46.2317 3.65848 47.8582 2.72769 49.6423 2.27719C51.4264 1.82669 53.2998 1.8737 55.0591 2.41312L49.0466 8.42765C48.7493 8.71992 48.5131 9.06847 48.352 9.45296C48.1908 9.83745 48.1077 10.2502 48.1077 10.6671C48.1077 11.084 48.1908 11.4968 48.352 11.8813C48.5131 12.2657 48.7493 12.6143 49.0466 12.9066Z" fill="#FEF6E1"/>
<path d="M59.3328 62.2517C59.1069 62.469 58.8055 62.59 58.4921 62.5892C58.1786 62.5885 57.8778 62.466 57.653 62.2477L37.2795 41.9352C37.0854 41.7615 36.8321 41.669 36.5717 41.6765C36.3114 41.684 36.0638 41.7911 35.88 41.9757C35.6963 42.1602 35.5902 42.4082 35.5838 42.6686C35.5774 42.929 35.671 43.1819 35.8455 43.3753L56.2169 63.6837C56.8262 64.2952 57.6347 64.6323 58.4959 64.6323C59.3572 64.6323 60.1656 64.2952 60.7872 63.6695L63.6898 60.6369C63.9866 60.344 64.2222 59.9951 64.3829 59.6104C64.5436 59.2257 64.6263 58.8129 64.6261 58.396C64.6259 57.9791 64.5429 57.5663 64.3818 57.1818C64.2207 56.7972 63.9848 56.4485 63.6878 56.1559L43.3753 35.8434C43.1838 35.6584 42.9272 35.5561 42.6609 35.5584C42.3946 35.5607 42.1399 35.6675 41.9516 35.8558C41.7633 36.0441 41.6565 36.2988 41.6541 36.5651C41.6518 36.8314 41.7542 37.088 41.9392 37.2795L62.2497 57.59C62.7148 58.0572 62.7148 58.7356 62.2355 59.2191L59.3328 62.2517ZM11.8909 6.3903L5.79718 0.296553C5.60672 0.106152 5.34844 -0.000808716 5.07913 -0.000808716C4.80982 -0.000808716 4.55154 0.106152 4.36108 0.296553L0.298582 4.35905C0.108182 4.54951 0.0012207 4.80779 0.0012207 5.0771C0.0012207 5.34641 0.108182 5.60469 0.298582 5.79515L6.39233 11.8889C6.58305 12.0786 6.84098 12.1852 7.10996 12.1856C7.37894 12.186 7.63718 12.0801 7.82843 11.8909L9.14061 10.5767L24.6716 26.1076C24.7651 26.2048 24.8771 26.2823 25.0009 26.3357C25.1247 26.3891 25.258 26.4173 25.3928 26.4186C25.5277 26.42 25.6614 26.3945 25.7863 26.3436C25.9112 26.2927 26.0247 26.2175 26.1202 26.1222C26.2157 26.027 26.2912 25.9137 26.3425 25.789C26.3937 25.6643 26.4196 25.5306 26.4186 25.3957C26.4177 25.2609 26.3898 25.1276 26.3368 25.0036C26.2837 24.8796 26.2065 24.7674 26.1097 24.6736L10.5767 9.14062L11.8889 7.82843C11.9836 7.73422 12.0588 7.62225 12.1102 7.49893C12.1616 7.37562 12.1881 7.24338 12.1883 7.10979C12.1885 6.9762 12.1623 6.84388 12.1113 6.72042C12.0603 6.59696 11.9854 6.48478 11.8909 6.3903ZM7.10936 9.73577L2.45171 5.07812L5.07811 2.45171L9.73577 7.10937L7.10936 9.73577Z" fill="#FEF6E1"/>
</g>
<defs>
<clipPath id="clip0_514_294">
<rect width="65" height="65" fill="white"/>
</clipPath>
</defs>
</svg>
