<svg width="89" height="75" viewBox="0 0 89 75" fill="none" xmlns="http://www.w3.org/2000/svg">
<path d="M32.8758 11.4009H15.3752C14.2148 11.4009 13.102 11.7806 12.2815 12.4566C11.461 13.1325 11 14.0493 11 15.0052V63.0629C11 64.0188 11.461 64.9356 12.2815 65.6115C13.102 66.2875 14.2148 66.6672 15.3752 66.6672H32.8758C34.0361 66.6672 35.149 66.2875 35.9695 65.6115C36.79 64.9356 37.2509 64.0188 37.2509 63.0629V15.0052C37.2509 14.0493 36.79 13.1325 35.9695 12.4566C35.149 11.7806 34.0361 11.4009 32.8758 11.4009ZM13.9168 23.4153H34.3341V54.6528H13.9168V23.4153ZM15.3752 13.8038H32.8758C33.2626 13.8038 33.6335 13.9303 33.907 14.1557C34.1805 14.381 34.3341 14.6866 34.3341 15.0052V21.0124H13.9168V15.0052C13.9168 14.6866 14.0704 14.381 14.3439 14.1557C14.6174 13.9303 14.9884 13.8038 15.3752 13.8038ZM32.8758 64.2643H15.3752C14.9884 64.2643 14.6174 64.1377 14.3439 63.9124C14.0704 63.6871 13.9168 63.3815 13.9168 63.0629V57.0557H34.3341V63.0629C34.3341 63.3815 34.1805 63.6871 33.907 63.9124C33.6335 64.1377 33.2626 64.2643 32.8758 64.2643ZM77.9909 59.2723L65.8899 11.8724C65.7729 11.4074 65.5454 10.966 65.2205 10.5736C64.8957 10.1812 64.4799 9.84552 63.9971 9.58594C63.5143 9.32635 62.974 9.14794 62.4072 9.06096C61.8404 8.97398 61.2583 8.98014 60.6944 9.07909L43.6277 12.0977C42.4932 12.3043 41.5035 12.8713 40.8735 13.6755C40.2434 14.4796 40.0238 15.4561 40.2625 16.3929L52.3634 63.7928C52.4805 64.2578 52.708 64.6992 53.0328 65.0916C53.3577 65.484 53.7734 65.8197 54.2562 66.0793C54.7391 66.3388 55.2794 66.5173 55.8462 66.6042C56.413 66.6912 56.995 66.6851 57.5589 66.5861L74.6257 63.5645C75.7603 63.3593 76.7506 62.7931 77.3809 61.9892C78.0112 61.1853 78.2304 60.2088 77.9909 59.2723ZM47.6528 33.6606L67.5707 30.1374L73.0397 51.484L53.1218 55.0102L47.6528 33.6606ZM45.2319 24.1812L65.1535 20.655L66.9764 27.7855L47.0549 31.3088L45.2319 24.1812ZM44.2439 14.4495L61.3143 11.4279C61.4149 11.41 61.5176 11.401 61.6205 11.4009C61.8977 11.4016 62.1686 11.4684 62.4007 11.5931C62.5653 11.6802 62.707 11.7937 62.8172 11.9268C62.9274 12.06 63.004 12.21 63.0424 12.368L64.5519 18.3092L44.6303 21.8294L43.1173 15.9063C43.0325 15.5901 43.1036 15.259 43.3148 14.9859C43.526 14.7128 43.8602 14.5199 44.2439 14.4495ZM74.0131 61.2157L56.9391 64.2373C56.5623 64.3034 56.1691 64.244 55.8453 64.0721C55.6807 63.985 55.5391 63.8715 55.4289 63.7384C55.3186 63.6052 55.242 63.4552 55.2036 63.2972L53.7015 57.356L73.623 53.8328L75.1361 59.7589C75.2209 60.0747 75.1504 60.4054 74.9399 60.6784C74.7294 60.9514 74.3962 61.1446 74.0131 61.2157Z" fill="#FEF6E1"/>
</svg>
