<svg width="80" height="80" viewBox="0 0 80 80" fill="none" xmlns="http://www.w3.org/2000/svg">
<path d="M71.2187 45.075C70.4375 44.4736 69.5278 44.061 68.5606 43.8696C67.5935 43.6783 66.5951 43.7133 65.6437 43.9719L61.9094 44.8313C69.7688 38.0875 73.75 31.4313 73.75 25C73.75 17.4188 67.6562 11.25 60.1687 11.25C57.9101 11.232 55.6828 11.7781 53.6887 12.839C51.6947 13.8999 49.9971 15.4418 48.75 17.325C47.5029 15.4418 45.8053 13.8999 43.8113 12.839C41.8172 11.7781 39.5899 11.232 37.3312 11.25C29.8438 11.25 23.75 17.4188 23.75 25C23.75 28.7031 25.0344 32.325 27.7531 36.25C25.5553 36.3318 23.4702 37.2442 21.9187 38.8031L14.4813 46.25H5C4.00544 46.25 3.05161 46.6451 2.34835 47.3484C1.64509 48.0516 1.25 49.0054 1.25 50V62.5C1.25 63.4946 1.64509 64.4484 2.34835 65.1517C3.05161 65.8549 4.00544 66.25 5 66.25H37.5C37.6053 66.2507 37.7103 66.2381 37.8125 66.2125L57.8125 61.2125C57.8763 61.1959 57.939 61.175 58 61.15L70.1312 55.9813L70.2 55.95C71.1774 55.4614 72.0144 54.7321 72.6321 53.8307C73.2497 52.9293 73.6278 51.8856 73.7307 50.7977C73.8335 49.7098 73.6577 48.6137 73.2199 47.6125C72.7821 46.6113 72.0967 45.7381 71.2281 45.075H71.2187ZM37.3312 13.75C39.5168 13.7227 41.6608 14.3481 43.489 15.5461C45.3172 16.7441 46.7464 18.4602 47.5938 20.475C47.6879 20.7043 47.8481 20.9004 48.054 21.0384C48.2599 21.1764 48.5021 21.25 48.75 21.25C48.9979 21.25 49.2401 21.1764 49.446 21.0384C49.6519 20.9004 49.8121 20.7043 49.9062 20.475C50.7536 18.4602 52.1828 16.7441 54.011 15.5461C55.8392 14.3481 57.9832 13.7227 60.1687 13.75C66.175 13.75 71.25 18.9031 71.25 25C71.25 31.6469 66.2094 38.75 56.2687 46.1281L50.2344 47.5C50.8997 46.3623 51.2503 45.068 51.25 43.75C51.25 41.7609 50.4598 39.8532 49.0533 38.4467C47.6468 37.0402 45.7391 36.25 43.75 36.25H30.8406C27.7156 32.1875 26.25 28.5938 26.25 25C26.25 18.9031 31.325 13.75 37.3312 13.75ZM3.75 62.5V50C3.75 49.6685 3.8817 49.3505 4.11612 49.1161C4.35054 48.8817 4.66848 48.75 5 48.75H13.75V63.75H5C4.66848 63.75 4.35054 63.6183 4.11612 63.3839C3.8817 63.1495 3.75 62.8315 3.75 62.5ZM69.1031 53.6969L57.1 58.8125L37.3469 63.75H16.25V48.0188L23.6875 40.5813C24.2663 39.9989 24.9549 39.5372 25.7134 39.2228C26.4719 38.9085 27.2852 38.7478 28.1063 38.75H43.75C45.0761 38.75 46.3479 39.2768 47.2855 40.2145C48.2232 41.1522 48.75 42.4239 48.75 43.75C48.75 45.0761 48.2232 46.3479 47.2855 47.2855C46.3479 48.2232 45.0761 48.75 43.75 48.75H35C34.6685 48.75 34.3505 48.8817 34.1161 49.1161C33.8817 49.3505 33.75 49.6685 33.75 50C33.75 50.3315 33.8817 50.6495 34.1161 50.8839C34.3505 51.1183 34.6685 51.25 35 51.25H45C45.0946 51.2504 45.189 51.2399 45.2812 51.2188L66.2187 46.4031H66.2687C67.2069 46.1544 68.204 46.2609 69.0684 46.7023C69.9329 47.1436 70.6039 47.8888 70.9526 48.7946C71.3012 49.7004 71.3031 50.7031 70.9577 51.6102C70.6123 52.5173 69.9441 53.2648 69.0812 53.7094L69.1031 53.6969Z" fill="#FEF6E1"/>
</svg>
