<svg width="80" height="55" viewBox="0 0 80 55" fill="none" xmlns="http://www.w3.org/2000/svg">
<path d="M80 27.2626C79.9955 24.3471 78.9458 21.4976 76.9827 19.0718C75.0196 16.646 72.2306 14.7518 68.9655 13.627V12.4907C68.9631 9.63935 67.7774 6.87437 65.6052 4.65453C63.4329 2.43469 60.4046 0.893429 57.0228 0.286477C53.6409 -0.320475 50.1089 0.043367 47.0126 1.31764C43.9163 2.5919 41.4419 4.7 40 7.29214C38.5581 4.7 36.0837 2.5919 32.9874 1.31764C29.8911 0.043367 26.3591 -0.320475 22.9772 0.286477C19.5954 0.893429 16.5671 2.43469 14.3948 4.65453C12.2226 6.87437 11.0369 9.63935 11.0345 12.4907V13.627C7.76676 14.7487 4.97517 16.6421 3.01151 19.0686C1.04785 21.4952 0 24.3463 0 27.2626C0 30.1789 1.04785 33.03 3.01151 35.4566C4.97517 37.8831 7.76676 39.7765 11.0345 40.8982V42.0345C11.0369 44.8859 12.2226 47.6508 14.3948 49.8707C16.5671 52.0905 19.5954 53.6318 22.9772 54.2387C26.3591 54.8457 29.8911 54.4818 32.9874 53.2076C36.0837 51.9333 38.5581 49.8252 40 47.2331C41.4419 49.8252 43.9163 51.9333 47.0126 53.2076C50.1089 54.4818 53.6409 54.8457 57.0228 54.2387C60.4046 53.6318 63.4329 52.0905 65.6052 49.8707C67.7774 47.6508 68.9631 44.8859 68.9655 42.0345V40.8982C72.2314 39.7743 75.0212 37.8804 76.9844 35.4544C78.9477 33.0283 79.9968 30.1784 80 27.2626ZM26.2069 52.2612C22.9146 52.2612 19.7571 51.1837 17.429 49.2659C15.101 47.348 13.7931 44.7468 13.7931 42.0345V41.634C15.1489 41.8992 16.5375 42.0336 17.931 42.0345H20.6897C21.0555 42.0345 21.4063 41.9148 21.665 41.7017C21.9236 41.4886 22.069 41.1996 22.069 40.8982C22.069 40.5968 21.9236 40.3078 21.665 40.0947C21.4063 39.8816 21.0555 39.7619 20.6897 39.7619H17.931C14.349 39.7653 10.881 38.7244 8.14101 36.8237C5.40101 34.9229 3.56569 32.2848 2.95994 29.3763C2.35419 26.4679 3.01707 23.4767 4.83125 20.9322C6.64542 18.3877 9.49389 16.454 12.8724 15.4735C13.1415 15.3953 13.3745 15.2504 13.5394 15.0586C13.7043 14.8668 13.7929 14.6376 13.7931 14.4025V12.4907C13.7931 9.77842 15.101 7.17722 17.429 5.25934C19.7571 3.34147 22.9146 2.26401 26.2069 2.26401C29.4992 2.26401 32.6567 3.34147 34.9848 5.25934C37.3128 7.17722 38.6207 9.77842 38.6207 12.4907V34.8616C37.2226 33.218 35.3646 31.8758 33.2039 30.9487C31.0431 30.0216 28.6432 29.5368 26.2069 29.5352C25.8411 29.5352 25.4902 29.6549 25.2316 29.868C24.9729 30.0811 24.8276 30.3701 24.8276 30.6715C24.8276 30.9729 24.9729 31.2619 25.2316 31.475C25.4902 31.6881 25.8411 31.8078 26.2069 31.8078C29.4992 31.8078 32.6567 32.8853 34.9848 34.8031C37.3128 36.721 38.6207 39.3222 38.6207 42.0345C38.6207 44.7468 37.3128 47.348 34.9848 49.2659C32.6567 51.1837 29.4992 52.2612 26.2069 52.2612ZM62.069 39.7619H59.3103C58.9445 39.7619 58.5937 39.8816 58.335 40.0947C58.0764 40.3078 57.931 40.5968 57.931 40.8982C57.931 41.1996 58.0764 41.4886 58.335 41.7017C58.5937 41.9148 58.9445 42.0345 59.3103 42.0345H62.069C63.4625 42.0336 64.8511 41.8992 66.2069 41.634V42.0345C66.2069 44.0572 65.4788 46.0344 64.1148 47.7162C62.7508 49.3979 60.812 50.7087 58.5437 51.4827C56.2753 52.2568 53.7793 52.4593 51.3713 52.0647C48.9633 51.6701 46.7513 50.6961 45.0152 49.2659C43.2791 47.8356 42.0968 46.0134 41.6178 44.0296C41.1388 42.0458 41.3847 39.9896 42.3243 38.1209C43.2638 36.2522 44.8549 34.655 46.8964 33.5313C48.9378 32.4076 51.3379 31.8078 53.7931 31.8078C54.1589 31.8078 54.5098 31.6881 54.7684 31.475C55.0271 31.2619 55.1724 30.9729 55.1724 30.6715C55.1724 30.3701 55.0271 30.0811 54.7684 29.868C54.5098 29.6549 54.1589 29.5352 53.7931 29.5352C51.3568 29.5368 48.9569 30.0216 46.7961 30.9487C44.6354 31.8758 42.7774 33.218 41.3793 34.8616V12.4907C41.3793 9.77842 42.6872 7.17722 45.0152 5.25934C47.3433 3.34147 50.5008 2.26401 53.7931 2.26401C57.0854 2.26401 60.2429 3.34147 62.571 5.25934C64.899 7.17722 66.2069 9.77842 66.2069 12.4907V14.4025C66.2071 14.6376 66.2957 14.8668 66.4606 15.0586C66.6255 15.2504 66.8585 15.3953 67.1276 15.4735C70.5061 16.454 73.3546 18.3877 75.1688 20.9322C76.9829 23.4767 77.6458 26.4679 77.0401 29.3763C76.4343 32.2848 74.599 34.9229 71.859 36.8237C69.119 38.7244 65.651 39.7653 62.069 39.7619ZM66.2069 23.8537C66.2069 24.1551 66.0616 24.4441 65.8029 24.6572C65.5442 24.8703 65.1934 24.99 64.8276 24.99H63.4483C60.5218 24.99 57.7151 24.0323 55.6457 22.3275C53.5764 20.6227 52.4138 18.3105 52.4138 15.8996V14.7633C52.4138 14.4619 52.5591 14.1729 52.8178 13.9598C53.0765 13.7467 53.4273 13.627 53.7931 13.627C54.1589 13.627 54.5098 13.7467 54.7684 13.9598C55.0271 14.1729 55.1724 14.4619 55.1724 14.7633V15.8996C55.1724 17.7078 56.0443 19.4419 57.5964 20.7205C59.1484 21.9991 61.2534 22.7174 63.4483 22.7174H64.8276C65.1934 22.7174 65.5442 22.8371 65.8029 23.0502C66.0616 23.2633 66.2069 23.5523 66.2069 23.8537ZM27.5862 15.8996C27.5862 18.3105 26.4236 20.6227 24.3543 22.3275C22.2849 24.0323 19.4783 24.99 16.5517 24.99H15.1724C14.8066 24.99 14.4558 24.8703 14.1971 24.6572C13.9384 24.4441 13.7931 24.1551 13.7931 23.8537C13.7931 23.5523 13.9384 23.2633 14.1971 23.0502C14.4558 22.8371 14.8066 22.7174 15.1724 22.7174H16.5517C18.7466 22.7174 20.8516 21.9991 22.4036 20.7205C23.9557 19.4419 24.8276 17.7078 24.8276 15.8996V14.7633C24.8276 14.4619 24.9729 14.1729 25.2316 13.9598C25.4902 13.7467 25.8411 13.627 26.2069 13.627C26.5727 13.627 26.9235 13.7467 27.1822 13.9598C27.4409 14.1729 27.5862 14.4619 27.5862 14.7633V15.8996Z" fill="#FEF6E1"/>
</svg>
