<svg width="28" height="29" viewBox="0 0 28 29" fill="none" xmlns="http://www.w3.org/2000/svg">
<path d="M16.0574 14.0057L27.6634 2.39973C27.8927 2.13191 28.0126 1.7874 27.999 1.43505C27.9853 1.08271 27.8393 0.748473 27.59 0.49914C27.3406 0.249808 27.0064 0.103742 26.654 0.0901322C26.3017 0.0765226 25.9572 0.196372 25.6894 0.425729L14.0834 12.0317L2.47736 0.411728C2.21374 0.148103 1.85618 0 1.48336 0C1.11054 0 0.752986 0.148103 0.489361 0.411728C0.225736 0.675354 0.0776325 1.03291 0.0776325 1.40573C0.0776325 1.77855 0.225736 2.1361 0.489361 2.39973L12.1094 14.0057L0.489361 25.6117C0.342806 25.7372 0.223778 25.8917 0.139745 26.0654C0.0557128 26.2391 0.00849056 26.4282 0.00104327 26.6211C-0.00640402 26.8139 0.0260836 27.0061 0.096468 27.1858C0.166852 27.3654 0.273614 27.5286 0.410051 27.665C0.546487 27.8015 0.709653 27.9082 0.889309 27.9786C1.06896 28.049 1.26123 28.0815 1.45404 28.074C1.64684 28.0666 1.83603 28.0194 2.00972 27.9353C2.18341 27.8513 2.33785 27.7323 2.46336 27.5857L14.0834 15.9797L25.6894 27.5857C25.9572 27.8151 26.3017 27.9349 26.654 27.9213C27.0064 27.9077 27.3406 27.7616 27.59 27.5123C27.8393 27.263 27.9853 26.9287 27.999 26.5764C28.0126 26.2241 27.8927 25.8796 27.6634 25.6117L16.0574 14.0057Z" fill="#FEF6E1"/>
</svg>
