<svg width="80" height="80" viewBox="0 0 80 80" fill="none" xmlns="http://www.w3.org/2000/svg">
<path d="M69.5667 7.20666C69.41 7.03583 69.2194 6.89957 69.007 6.80658C68.7946 6.7136 68.5652 6.66595 68.3334 6.66666H11.6667C11.4355 6.66669 11.2068 6.71483 10.9952 6.80801C10.7836 6.9012 10.5937 7.0374 10.4376 7.20794C10.2814 7.37849 10.1625 7.57965 10.0883 7.79865C10.0142 8.01764 9.98636 8.24968 10.0067 8.48L15.0067 65.1467C15.0361 65.4823 15.1664 65.8012 15.3807 66.0612C15.5949 66.3213 15.8829 66.5103 16.2067 66.6033L39.5067 73.27C39.8065 73.3539 40.1236 73.3539 40.4234 73.27L63.79 66.6033C64.1145 66.5108 64.4032 66.3221 64.6181 66.062C64.8329 65.8019 64.9638 65.4827 64.9934 65.1467L69.9934 8.48C70.014 8.24953 69.9864 8.01729 69.9124 7.79807C69.8384 7.57884 69.7195 7.37743 69.5634 7.20666H69.5667ZM61.7734 63.71L39.9667 69.9333L18.2267 63.7133L13.4867 10H66.5134L61.7734 63.71ZM26.5334 25H51.6467L50.76 35H33.3334C32.8913 35 32.4674 35.1756 32.1549 35.4882C31.8423 35.8007 31.6667 36.2246 31.6667 36.6667C31.6667 37.1087 31.8423 37.5326 32.1549 37.8452C32.4674 38.1577 32.8913 38.3333 33.3334 38.3333H50.4634L49.3134 51.2767L40 53.3933L30.6867 51.2767L30.26 46.5167C30.2097 46.0808 29.9937 45.681 29.6568 45.4C29.3199 45.1189 28.8879 44.9781 28.45 45.0067C28.232 45.0264 28.0201 45.0888 27.8262 45.1904C27.6323 45.292 27.4604 45.4308 27.3201 45.5989C27.1799 45.767 27.0742 45.961 27.009 46.17C26.9438 46.3789 26.9203 46.5987 26.94 46.8167L27.4734 52.7833C27.5056 53.1341 27.6481 53.4656 27.8805 53.7303C28.1129 53.995 28.4231 54.1792 28.7667 54.2567L39.6334 56.7233C39.8746 56.7793 40.1255 56.7793 40.3667 56.7233L51.2334 54.2567C51.5775 54.1791 51.8881 53.9943 52.1205 53.7289C52.3529 53.4636 52.4951 53.1313 52.5267 52.78L53.9467 36.77C53.9467 36.7367 53.9667 36.7033 53.9667 36.6667L53.96 36.6267L55.1267 23.48C55.1471 23.2497 55.1193 23.0176 55.0451 22.7986C54.9709 22.5797 54.852 22.3785 54.6958 22.2079C54.5397 22.0374 54.3498 21.9012 54.1382 21.808C53.9266 21.7148 53.6979 21.6667 53.4667 21.6667H26.5334C26.0913 21.6667 25.6674 21.8423 25.3549 22.1548C25.0423 22.4674 24.8667 22.8913 24.8667 23.3333C24.8667 23.7754 25.0423 24.1993 25.3549 24.5118C25.6674 24.8244 26.0913 25 26.5334 25Z" fill="#FEF6E1"/>
</svg>
