<svg width="102" height="76" viewBox="0 0 102 76" fill="none" xmlns="http://www.w3.org/2000/svg">
<path d="M91 38.2626C90.9955 35.3471 89.9458 32.4976 87.9827 30.0718C86.0196 27.646 83.2306 25.7518 79.9655 24.627V23.4907C79.9631 20.6394 78.7774 17.8744 76.6052 15.6545C74.4329 13.4347 71.4046 11.8934 68.0228 11.2865C64.6409 10.6795 61.1089 11.0434 58.0126 12.3176C54.9163 13.5919 52.4419 15.7 51 18.2921C49.5581 15.7 47.0837 13.5919 43.9874 12.3176C40.8911 11.0434 37.3591 10.6795 33.9772 11.2865C30.5954 11.8934 27.5671 13.4347 25.3948 15.6545C23.2226 17.8744 22.0369 20.6394 22.0345 23.4907V24.627C18.7668 25.7487 15.9752 27.6421 14.0115 30.0686C12.0479 32.4952 11 35.3463 11 38.2626C11 41.1789 12.0479 44.03 14.0115 46.4566C15.9752 48.8831 18.7668 50.7765 22.0345 51.8982V53.0345C22.0369 55.8859 23.2226 58.6508 25.3948 60.8707C27.5671 63.0905 30.5954 64.6318 33.9772 65.2387C37.3591 65.8457 40.8911 65.4818 43.9874 64.2076C47.0837 62.9333 49.5581 60.8252 51 58.2331C52.4419 60.8252 54.9163 62.9333 58.0126 64.2076C61.1089 65.4818 64.6409 65.8457 68.0228 65.2387C71.4046 64.6318 74.4329 63.0905 76.6052 60.8707C78.7774 58.6508 79.9631 55.8859 79.9655 53.0345V51.8982C83.2314 50.7743 86.0212 48.8804 87.9844 46.4544C89.9477 44.0283 90.9968 41.1784 91 38.2626ZM37.2069 63.2612C33.9146 63.2612 30.7571 62.1837 28.429 60.2659C26.101 58.348 24.7931 55.7468 24.7931 53.0345V52.634C26.1489 52.8992 27.5375 53.0336 28.931 53.0345H31.6897C32.0555 53.0345 32.4063 52.9148 32.665 52.7017C32.9236 52.4886 33.069 52.1996 33.069 51.8982C33.069 51.5968 32.9236 51.3078 32.665 51.0947C32.4063 50.8816 32.0555 50.7619 31.6897 50.7619H28.931C25.349 50.7653 21.881 49.7244 19.141 47.8237C16.401 45.9229 14.5657 43.2848 13.9599 40.3763C13.3542 37.4679 14.0171 34.4767 15.8312 31.9322C17.6454 29.3877 20.4939 27.454 23.8724 26.4735C24.1415 26.3953 24.3745 26.2504 24.5394 26.0586C24.7043 25.8668 24.7929 25.6376 24.7931 25.4025V23.4907C24.7931 20.7784 26.101 18.1772 28.429 16.2593C30.7571 14.3415 33.9146 13.264 37.2069 13.264C40.4992 13.264 43.6567 14.3415 45.9848 16.2593C48.3128 18.1772 49.6207 20.7784 49.6207 23.4907V45.8616C48.2226 44.218 46.3646 42.8758 44.2039 41.9487C42.0431 41.0216 39.6432 40.5368 37.2069 40.5352C36.8411 40.5352 36.4902 40.6549 36.2316 40.868C35.9729 41.0811 35.8276 41.3701 35.8276 41.6715C35.8276 41.9729 35.9729 42.2619 36.2316 42.475C36.4902 42.6881 36.8411 42.8078 37.2069 42.8078C40.4992 42.8078 43.6567 43.8853 45.9848 45.8031C48.3128 47.721 49.6207 50.3222 49.6207 53.0345C49.6207 55.7468 48.3128 58.348 45.9848 60.2659C43.6567 62.1837 40.4992 63.2612 37.2069 63.2612ZM73.069 50.7619H70.3103C69.9445 50.7619 69.5937 50.8816 69.335 51.0947C69.0764 51.3078 68.931 51.5968 68.931 51.8982C68.931 52.1996 69.0764 52.4886 69.335 52.7017C69.5937 52.9148 69.9445 53.0345 70.3103 53.0345H73.069C74.4625 53.0336 75.8511 52.8992 77.2069 52.634V53.0345C77.2069 55.0572 76.4788 57.0344 75.1148 58.7162C73.7508 60.3979 71.812 61.7087 69.5437 62.4827C67.2753 63.2568 64.7793 63.4593 62.3713 63.0647C59.9633 62.6701 57.7513 61.6961 56.0152 60.2659C54.2791 58.8356 53.0968 57.0134 52.6178 55.0296C52.1388 53.0458 52.3847 50.9896 53.3243 49.1209C54.2638 47.2522 55.8549 45.655 57.8964 44.5313C59.9378 43.4076 62.3379 42.8078 64.7931 42.8078C65.1589 42.8078 65.5098 42.6881 65.7684 42.475C66.0271 42.2619 66.1724 41.9729 66.1724 41.6715C66.1724 41.3701 66.0271 41.0811 65.7684 40.868C65.5098 40.6549 65.1589 40.5352 64.7931 40.5352C62.3568 40.5368 59.9569 41.0216 57.7961 41.9487C55.6354 42.8758 53.7774 44.218 52.3793 45.8616V23.4907C52.3793 20.7784 53.6872 18.1772 56.0152 16.2593C58.3433 14.3415 61.5008 13.264 64.7931 13.264C68.0854 13.264 71.2429 14.3415 73.571 16.2593C75.899 18.1772 77.2069 20.7784 77.2069 23.4907V25.4025C77.2071 25.6376 77.2957 25.8668 77.4606 26.0586C77.6255 26.2504 77.8585 26.3953 78.1276 26.4735C81.5061 27.454 84.3546 29.3877 86.1688 31.9322C87.9829 34.4767 88.6458 37.4679 88.0401 40.3763C87.4343 43.2848 85.599 45.9229 82.859 47.8237C80.119 49.7244 76.651 50.7653 73.069 50.7619ZM77.2069 34.8537C77.2069 35.1551 77.0616 35.4441 76.8029 35.6572C76.5442 35.8703 76.1934 35.99 75.8276 35.99H74.4483C71.5218 35.99 68.7151 35.0323 66.6457 33.3275C64.5764 31.6227 63.4138 29.3105 63.4138 26.8996V25.7633C63.4138 25.4619 63.5591 25.1729 63.8178 24.9598C64.0765 24.7467 64.4273 24.627 64.7931 24.627C65.1589 24.627 65.5098 24.7467 65.7684 24.9598C66.0271 25.1729 66.1724 25.4619 66.1724 25.7633V26.8996C66.1724 28.7078 67.0443 30.4419 68.5964 31.7205C70.1484 32.9991 72.2534 33.7174 74.4483 33.7174H75.8276C76.1934 33.7174 76.5442 33.8371 76.8029 34.0502C77.0616 34.2633 77.2069 34.5523 77.2069 34.8537ZM38.5862 26.8996C38.5862 29.3105 37.4236 31.6227 35.3543 33.3275C33.2849 35.0323 30.4783 35.99 27.5517 35.99H26.1724C25.8066 35.99 25.4558 35.8703 25.1971 35.6572C24.9384 35.4441 24.7931 35.1551 24.7931 34.8537C24.7931 34.5523 24.9384 34.2633 25.1971 34.0502C25.4558 33.8371 25.8066 33.7174 26.1724 33.7174H27.5517C29.7466 33.7174 31.8516 32.9991 33.4036 31.7205C34.9557 30.4419 35.8276 28.7078 35.8276 26.8996V25.7633C35.8276 25.4619 35.9729 25.1729 36.2316 24.9598C36.4902 24.7467 36.8411 24.627 37.2069 24.627C37.5727 24.627 37.9235 24.7467 38.1822 24.9598C38.4409 25.1729 38.5862 25.4619 38.5862 25.7633V26.8996Z" fill="#FEF6E1"/>
</svg>
