<svg width="80" height="80" viewBox="0 0 80 80" fill="none" xmlns="http://www.w3.org/2000/svg">
<path d="M32.248 45H29.24V22.6H32.248V32.008H41.976V22.6H44.984V45H41.976V34.824H32.248V45ZM52.3088 45H49.4928V32.328H46.8688L48.1488 29.64H52.3088V45ZM49.3648 26.44C49.0874 26.0773 48.9488 25.6827 48.9488 25.256C48.9488 24.8293 49.0874 24.4453 49.3648 24.104C49.6421 23.7413 50.0688 23.56 50.6448 23.56C51.2208 23.56 51.6474 23.7413 51.9248 24.104C52.2021 24.4453 52.3408 24.8293 52.3408 25.256C52.3408 25.6827 52.2021 26.0773 51.9248 26.44C51.6474 26.7813 51.2208 26.952 50.6448 26.952C50.0688 26.952 49.6421 26.7813 49.3648 26.44Z" fill="#FEF6E1"/>
<path fill-rule="evenodd" clip-rule="evenodd" d="M41.3333 55H45.8333C57.34 55 66.6667 45.6733 66.6667 34.1667C66.6667 22.66 57.34 13.3333 45.8333 13.3333H34.1667C22.66 13.3333 13.3333 22.66 13.3333 34.1667C13.3333 47.6 20.9933 55.6333 29.05 60.4767C33.0933 62.9067 37.1667 64.4767 40.2433 65.4383C40.6233 65.5567 40.9883 65.6667 41.3333 65.7667V55ZM44.6667 70C44.6667 70 43.3933 69.785 41.3333 69.2283C32.65 66.875 10 58.4167 10 34.1667C10 20.82 20.82 10 34.1667 10H45.8333C59.18 10 70 20.82 70 34.1667C70 47.5133 59.18 58.3333 45.8333 58.3333H44.6667V70Z" fill="#FEF6E1"/>
</svg>
