<svg width="80" height="80" viewBox="0 0 80 80" fill="none" xmlns="http://www.w3.org/2000/svg">
<path fill-rule="evenodd" clip-rule="evenodd" d="M41.3333 55H45.8333C57.34 55 66.6667 45.6733 66.6667 34.1667C66.6667 22.66 57.34 13.3333 45.8333 13.3333H34.1667C22.66 13.3333 13.3333 22.66 13.3333 34.1667C13.3333 47.6 20.9933 55.6333 29.05 60.4767C33.0933 62.9067 37.1667 64.4767 40.2433 65.4383C40.6233 65.5567 40.9883 65.6667 41.3333 65.7667V55ZM44.6667 70C44.6667 70 43.3933 69.785 41.3333 69.2283C32.65 66.875 10 58.4167 10 34.1667C10 20.82 20.82 10 34.1667 10H45.8333C59.18 10 70 20.82 70 34.1667C70 47.5133 59.18 58.3333 45.8333 58.3333H44.6667V70Z" fill="#FEF6E1"/>
<path fill-rule="evenodd" clip-rule="evenodd" d="M46.1517 20.8033C47.8683 21.9433 49.1616 23.7917 49.1616 26.27C49.1616 28.9 48.1017 30.8333 46.3833 32.0167C45.7049 32.4759 44.9562 32.8216 44.1667 33.04V35.5933C44.1667 36.2564 43.9033 36.8922 43.4344 37.3611C42.9656 37.8299 42.3297 38.0933 41.6667 38.0933C41.0036 38.0933 40.3677 37.8299 39.8989 37.3611C39.43 36.8922 39.1667 36.2564 39.1667 35.5933V30.9317C39.1665 30.2974 39.4075 29.6867 39.8407 29.2235C40.274 28.7602 40.8671 28.4789 41.5 28.4367C42.4233 28.375 43.1233 28.1917 43.545 27.9C43.7159 27.7868 43.8539 27.6304 43.945 27.4467C44.045 27.2467 44.1617 26.89 44.1617 26.2683C44.1617 25.7467 43.9583 25.3483 43.3833 24.965C42.73 24.5317 41.68 24.2117 40.4183 24.1717C39.1716 24.1317 37.96 24.375 37.0683 24.8067C36.175 25.24 35.8466 25.7267 35.755 26.085C35.6733 26.403 35.5299 26.7018 35.3327 26.9644C35.1356 27.227 34.8887 27.4481 34.6061 27.6153C34.3235 27.7824 34.0108 27.8923 33.6857 27.9386C33.3607 27.9848 33.0297 27.9666 32.7117 27.885C32.3936 27.8034 32.0948 27.6599 31.8322 27.4627C31.5697 27.2656 31.3485 27.0187 31.1814 26.7361C31.0142 26.4535 30.9044 26.1408 30.8581 25.8157C30.8118 25.4907 30.83 25.1597 30.9117 24.8417C31.4867 22.6067 33.1583 21.1467 34.8883 20.3083C36.6217 19.4667 38.66 19.1117 40.5767 19.1733C42.4817 19.2333 44.515 19.7133 46.1517 20.8033Z" fill="#FEF6E1"/>
<path d="M45 45C45 45.8841 44.6489 46.7319 44.0237 47.357C43.3986 47.9822 42.5508 48.3334 41.6667 48.3334C40.7827 48.3334 39.9348 47.9822 39.3097 47.357C38.6846 46.7319 38.3334 45.8841 38.3334 45C38.3334 44.116 38.6846 43.2681 39.3097 42.643C39.9348 42.0179 40.7827 41.6667 41.6667 41.6667C42.5508 41.6667 43.3986 42.0179 44.0237 42.643C44.6489 43.2681 45 44.116 45 45Z" fill="#FEF6E1"/>
</svg>
