<svg width="87" height="76" viewBox="0 0 87 76" fill="none" xmlns="http://www.w3.org/2000/svg">
<path d="M72.6667 44.9527V36.7145C72.6667 33.469 71.8908 30.2552 70.3831 27.2567C68.8755 24.2582 66.6657 21.5337 63.8799 19.2387C61.0942 16.9438 57.787 15.1233 54.1473 13.8813C50.5075 12.6393 46.6064 12 42.6667 12C38.7271 12 34.826 12.6393 31.1862 13.8813C27.5465 15.1233 24.2393 16.9438 21.4535 19.2387C18.6678 21.5337 16.458 24.2582 14.9504 27.2567C13.4427 30.2552 12.6667 33.469 12.6667 36.7145V44.9527" stroke="#FEF6E1" stroke-width="3.33333" stroke-linecap="round"/>
<path d="M12.6667 44.9527V43.5797H11V44.9527H12.6667ZM12.6667 46.3257H22.6667V43.5797H12.6667V46.3257ZM24.3333 47.6987V55.9369H27.6667V47.6987H24.3333ZM14.3333 55.9369V44.9527H11V55.9369H14.3333ZM19.3333 60.056C18.0073 60.056 16.7355 59.622 15.7978 58.8495C14.8601 58.0771 14.3333 57.0294 14.3333 55.9369H11C11 57.7577 11.878 59.5038 13.4408 60.7913C15.0036 62.0788 17.1232 62.8021 19.3333 62.8021V60.056ZM24.3333 55.9369C24.3333 57.0294 23.8065 58.0771 22.8689 58.8495C21.9312 59.622 20.6594 60.056 19.3333 60.056V62.8021C21.5435 62.8021 23.6631 62.0788 25.2259 60.7913C26.7887 59.5038 27.6667 57.7577 27.6667 55.9369H24.3333ZM22.6667 46.3257C23.1087 46.3257 23.5326 46.4704 23.8452 46.7279C24.1577 46.9854 24.3333 47.3346 24.3333 47.6987H27.6667C27.6667 46.6063 27.1399 45.5586 26.2022 44.7861C25.2645 44.0136 23.9927 43.5797 22.6667 43.5797V46.3257ZM72.6667 44.9527H74.3333V43.5797H72.6667V44.9527ZM62.6667 46.3257H72.6667V43.5797H62.6667V46.3257ZM71 44.9527V55.9369H74.3333V44.9527H71ZM61 55.9369V47.6987H57.6667V55.9369H61ZM66 60.056C64.6739 60.056 63.4021 59.622 62.4645 58.8495C61.5268 58.0771 61 57.0294 61 55.9369H57.6667C57.6667 57.7577 58.5446 59.5038 60.1074 60.7913C61.6702 62.0788 63.7899 62.8021 66 62.8021V60.056ZM71 55.9369C71 57.0294 70.4732 58.0771 69.5355 58.8495C68.5978 59.622 67.3261 60.056 66 60.056V62.8021C68.2101 62.8021 70.3298 62.0788 71.8926 60.7913C73.4554 59.5038 74.3333 57.7577 74.3333 55.9369H71ZM62.6667 43.5797C61.3406 43.5797 60.0688 44.0136 59.1311 44.7861C58.1935 45.5586 57.6667 46.6063 57.6667 47.6987H61C61 47.3346 61.1756 46.9854 61.4882 46.7279C61.8007 46.4704 62.2246 46.3257 62.6667 46.3257V43.5797Z" fill="#FEF6E1"/>
</svg>
