<svg width="199" height="116" viewBox="0 0 199 116" fill="none" xmlns="http://www.w3.org/2000/svg">
<path d="M43.224 29.6C43.208 32.272 42.464 34.344 40.992 35.816C39.536 37.272 37.52 38 34.944 38H31.68V21.2H34.944C37.52 21.2 39.536 21.936 40.992 23.408C42.464 24.864 43.208 26.928 43.224 29.6ZM35.232 35.888C37.008 35.888 38.368 35.304 39.312 34.136C40.272 32.952 40.768 31.44 40.8 29.6C40.768 27.76 40.272 26.256 39.312 25.088C38.368 23.904 37.008 23.312 35.232 23.312H33.936V35.888H35.232ZM61.0839 38H51.5319V25.208C51.5319 24.024 51.9079 23.072 52.6599 22.352C53.1719 21.872 53.7479 21.56 54.3879 21.416C55.0279 21.272 55.8119 21.2 56.7399 21.2H61.0839V23.312H56.4279C54.6679 23.312 53.7879 24.048 53.7879 25.52V28.256H59.3319V30.368H53.7879V35.888H61.0839V38ZM71.3954 38H69.1394V21.2H75.0674C77.0514 21.2 78.5314 21.648 79.5074 22.544C80.4834 23.424 80.9714 24.816 80.9714 26.72V38H78.7154V26.408C78.7154 25.32 78.3794 24.536 77.7074 24.056C77.0514 23.56 76.1794 23.312 75.0914 23.312H71.3954V38ZM91.7657 38H89.5097V21.2H91.7657V38ZM90.6857 20.12L89.4377 19.112L92.2697 15.56L93.7577 17.048L90.6857 20.12ZM110.707 35V38H108.403V35C108.403 33.192 108.003 31.92 107.203 31.184C106.419 30.432 104.915 30.048 102.691 30.032V38H100.435V21.2H102.691V28.04C103.875 28.072 104.579 28.104 104.803 28.136L108.187 21.2H110.635L106.843 28.664C109.419 29.608 110.707 31.72 110.707 35ZM40.152 49.2V51.312H35.904C34.288 51.312 33.48 51.968 33.48 53.28C33.48 53.984 33.832 54.584 34.536 55.08C35.256 55.56 36.224 56.024 37.44 56.472C37.984 56.68 38.448 56.896 38.832 57.12C39.216 57.328 39.6 57.608 39.984 57.96C40.368 58.312 40.656 58.768 40.848 59.328C41.04 59.872 41.136 60.504 41.136 61.224C41.136 62.024 40.968 62.744 40.632 63.384C40.296 64.008 39.864 64.504 39.336 64.872C38.808 65.224 38.264 65.496 37.704 65.688C37.16 65.864 36.624 65.96 36.096 65.976C35.872 65.992 35.552 66 35.136 66H31.392V63.888H35.064C36.152 63.888 37.04 63.664 37.728 63.216C38.416 62.752 38.76 62.08 38.76 61.2C38.76 60.768 38.664 60.392 38.472 60.072C38.28 59.736 38 59.448 37.632 59.208C37.28 58.968 36.912 58.76 36.528 58.584C36.16 58.408 35.712 58.224 35.184 58.032C35.04 57.984 34.928 57.944 34.848 57.912C32.336 56.952 31.08 55.384 31.08 53.208C31.08 51.864 31.512 50.864 32.376 50.208C33.24 49.536 34.368 49.2 35.76 49.2H40.152ZM47.9937 51.312V49.2H58.5538V51.312H54.4017V66H52.1457V51.312H47.9937ZM75.5954 49.2H77.8514V60.72C77.8514 62.624 77.3554 64.024 76.3634 64.92C75.3874 65.8 73.9074 66.24 71.9234 66.24C69.9394 66.24 68.4594 65.8 67.4834 64.92C66.5074 64.024 66.0194 62.624 66.0194 60.72V49.2H68.2754V61.032C68.2754 62.12 68.6034 62.912 69.2594 63.408C69.9314 63.888 70.8114 64.128 71.8994 64.128C73.0194 64.128 73.9154 63.888 74.5874 63.408C75.2594 62.912 75.5954 62.12 75.5954 61.032V49.2ZM97.9365 57.6C97.9205 60.272 97.1765 62.344 95.7045 63.816C94.2485 65.272 92.2325 66 89.6565 66H86.3925V49.2H89.6565C92.2325 49.2 94.2485 49.936 95.7045 51.408C97.1765 52.864 97.9205 54.928 97.9365 57.6ZM89.9445 63.888C91.7205 63.888 93.0805 63.304 94.0245 62.136C94.9845 60.952 95.4805 59.44 95.5125 57.6C95.4805 55.76 94.9845 54.256 94.0245 53.088C93.0805 51.904 91.7205 51.312 89.9445 51.312H88.6485V63.888H89.9445ZM115.796 66H106.244V53.208C106.244 52.024 106.62 51.072 107.372 50.352C107.884 49.872 108.46 49.56 109.1 49.416C109.74 49.272 110.524 49.2 111.452 49.2H115.796V51.312H111.14C109.38 51.312 108.5 52.048 108.5 53.52V56.256H114.044V58.368H108.5V63.888H115.796V66ZM126.108 66H123.852V49.2H129.78C131.764 49.2 133.244 49.648 134.22 50.544C135.196 51.424 135.684 52.816 135.684 54.72V66H133.428V54.408C133.428 53.32 133.092 52.536 132.42 52.056C131.764 51.56 130.892 51.312 129.804 51.312H126.108V66ZM143.142 51.312V49.2H153.702V51.312H149.55V66H147.294V51.312H143.142ZM171.56 63V66H169.256V63C169.256 61.192 168.856 59.92 168.056 59.184C167.272 58.432 165.768 58.048 163.544 58.032V66H161.288V49.2H163.544V56.04C164.728 56.072 165.432 56.104 165.656 56.136L169.04 49.2H171.488L167.696 56.664C170.272 57.608 171.56 59.72 171.56 63ZM190.008 49.2V50.4C190.008 52.352 189.64 54.144 188.904 55.776C188.184 57.392 187.128 58.624 185.736 59.472V66H183.48V59.52C182.088 58.688 181.016 57.48 180.264 55.896C179.512 54.296 179.136 52.536 179.136 50.616V49.2H181.44V50.4C181.44 52.048 181.672 53.464 182.136 54.648C182.616 55.816 183.44 56.776 184.608 57.528C186.704 56.136 187.752 53.76 187.752 50.4V49.2H190.008ZM33.816 81.52V84.736H38.28V86.848H33.816V94H31.56V81.208C31.56 80.024 31.936 79.072 32.688 78.352C33.2 77.872 33.776 77.56 34.416 77.416C35.056 77.272 35.84 77.2 36.768 77.2H39.312V79.312H36.456C34.696 79.312 33.816 80.048 33.816 81.52ZM46.6569 94V83.08C46.6569 81.144 47.1289 79.64 48.0729 78.568C49.0329 77.496 50.3929 76.96 52.1529 76.96C53.9289 76.96 55.2889 77.392 56.2329 78.256C57.1929 79.12 57.6729 80.336 57.6729 81.904C57.6729 82.912 57.4329 83.736 56.9529 84.376C56.4729 85.016 55.6569 85.52 54.5049 85.888V85.984C55.7049 86.448 56.5049 87.112 56.9049 87.976C57.3209 88.824 57.5289 90.232 57.5289 92.2V94H55.2729V90.928C55.2729 89.712 54.9289 88.768 54.2409 88.096C53.5529 87.408 52.5609 87.064 51.2649 87.064H49.9689V84.952H51.3369C52.8729 84.952 53.9369 84.64 54.5289 84.016C55.1209 83.392 55.4169 82.648 55.4169 81.784C55.4169 80.968 55.1209 80.312 54.5289 79.816C53.9529 79.32 53.1849 79.072 52.2249 79.072C51.1209 79.072 50.2889 79.384 49.7289 80.008C49.1849 80.632 48.9129 81.656 48.9129 83.08V94H46.6569ZM78.9861 85.672C78.9701 84.776 78.8341 83.928 78.5781 83.128C78.3381 82.328 77.9781 81.632 77.4981 81.04C77.0341 80.432 76.4661 79.952 75.7941 79.6C75.1221 79.248 74.3621 79.072 73.5141 79.072C72.6661 79.072 71.9061 79.248 71.2341 79.6C70.5621 79.952 69.9861 80.432 69.5061 81.04C69.0421 81.632 68.6821 82.328 68.4261 83.128C68.1861 83.928 68.0581 84.776 68.0421 85.672C68.0581 86.584 68.1861 87.432 68.4261 88.216C68.6821 89 69.0421 89.68 69.5061 90.256C69.9861 90.832 70.5621 91.288 71.2341 91.624C71.9061 91.96 72.6661 92.128 73.5141 92.128C74.3621 92.128 75.1221 91.96 75.7941 91.624C76.4661 91.288 77.0341 90.832 77.4981 90.256C77.9781 89.68 78.3381 89 78.5781 88.216C78.8341 87.432 78.9701 86.584 78.9861 85.672ZM65.6181 85.672C65.6341 84.344 65.8341 83.144 66.2181 82.072C66.6021 81 67.1381 80.088 67.8261 79.336C68.5141 78.568 69.3381 77.984 70.2981 77.584C71.2581 77.168 72.3301 76.96 73.5141 76.96C74.6821 76.96 75.7461 77.168 76.7061 77.584C77.6821 77.984 78.5141 78.568 79.2021 79.336C79.8901 80.088 80.4261 81 80.8101 82.072C81.1941 83.144 81.3941 84.344 81.4101 85.672C81.3941 87 81.1941 88.192 80.8101 89.248C80.4421 90.304 79.9141 91.2 79.2261 91.936C78.5381 92.672 77.7061 93.24 76.7301 93.64C75.7701 94.04 74.6981 94.24 73.5141 94.24C72.3301 94.24 71.2501 94.04 70.2741 93.64C69.3141 93.24 68.4901 92.672 67.8021 91.936C67.1141 91.2 66.5781 90.304 66.1941 89.248C65.8261 88.192 65.6341 87 65.6181 85.672ZM92.0938 94H89.8378V77.2H95.7658C97.7498 77.2 99.2298 77.648 100.206 78.544C101.182 79.424 101.67 80.816 101.67 82.72V94H99.4138V82.408C99.4138 81.32 99.0778 80.536 98.4058 80.056C97.7498 79.56 96.8778 79.312 95.7898 79.312H92.0938V94ZM109.128 79.312V77.2H119.688V79.312H115.536V94H113.28V79.312H109.128ZM136.706 94H127.154V81.208C127.154 80.024 127.53 79.072 128.282 78.352C128.794 77.872 129.37 77.56 130.01 77.416C130.65 77.272 131.434 77.2 132.362 77.2H136.706V79.312H132.05C130.29 79.312 129.41 80.048 129.41 81.52V84.256H134.954V86.368H129.41V91.888H136.706V94ZM147.017 94H144.761V77.2H150.689C152.673 77.2 154.153 77.648 155.129 78.544C156.105 79.424 156.593 80.816 156.593 82.72V94H154.337V82.408C154.337 81.32 154.001 80.536 153.329 80.056C152.673 79.56 151.801 79.312 150.713 79.312H147.017V94ZM176.676 85.6C176.66 88.272 175.916 90.344 174.444 91.816C172.988 93.272 170.972 94 168.396 94H165.132V77.2H168.396C170.972 77.2 172.988 77.936 174.444 79.408C175.916 80.864 176.66 82.928 176.676 85.6ZM168.684 91.888C170.46 91.888 171.82 91.304 172.764 90.136C173.724 88.952 174.22 87.44 174.252 85.6C174.22 83.76 173.724 82.256 172.764 81.088C171.82 79.904 170.46 79.312 168.684 79.312H167.388V91.888H168.684ZM194.559 77.2H196.815V88.72C196.815 90.624 196.319 92.024 195.327 92.92C194.351 93.8 192.871 94.24 190.887 94.24C188.903 94.24 187.423 93.8 186.447 92.92C185.471 92.024 184.983 90.624 184.983 88.72V77.2H187.239V89.032C187.239 90.12 187.567 90.912 188.223 91.408C188.895 91.888 189.775 92.128 190.863 92.128C191.983 92.128 192.879 91.888 193.551 91.408C194.223 90.912 194.559 90.12 194.559 89.032V77.2Z" fill="#FEF6E1"/>
<rect x="1" y="1" width="44" height="114" stroke="#F56767" stroke-width="2"/>
</svg>
