<svg width="60" height="60" viewBox="0 0 60 60" fill="none" xmlns="http://www.w3.org/2000/svg">
<g id="skill-icons:react">
<path id="Vector" d="M45.9375 0H14.0625C6.296 0 0 6.296 0 14.0625V45.9375C0 53.704 6.296 60 14.0625 60H45.9375C53.704 60 60 53.704 60 45.9375V14.0625C60 6.296 53.704 0 45.9375 0Z" fill="#242938"/>
<path id="Vector_2" d="M30.0002 34.4415C32.4152 34.4415 34.3727 32.4838 34.3727 30.069C34.3727 27.6543 32.4152 25.6965 30.0002 25.6965C27.5855 25.6965 25.6277 27.6543 25.6277 30.069C25.6277 32.4838 27.5855 34.4415 30.0002 34.4415Z" fill="#00D8FF"/>
<path id="Vector_3" d="M30.0005 21.1788C35.8711 21.1788 41.3248 22.0212 45.4369 23.437C50.3913 25.1426 53.4375 27.728 53.4375 30.0691C53.4375 32.5088 50.2092 35.2554 44.8887 37.0181C40.8663 38.3508 35.5732 39.0464 30.0005 39.0464C24.2869 39.0464 18.8763 38.3934 14.8085 37.0034C9.66211 35.2444 6.5625 32.4623 6.5625 30.0691C6.5625 27.747 9.47109 25.1815 14.3559 23.4785C18.4833 22.0395 24.0715 21.1788 29.9995 21.1788H30.0005Z" stroke="#00D8FF" stroke-width="2.08852"/>
<path id="Vector_4" d="M22.2612 25.6495C25.1941 20.5641 28.6481 16.2605 31.9289 13.4058C35.8814 9.96586 39.6431 8.61867 41.6709 9.78797C43.7843 11.0067 44.5509 15.1758 43.4201 20.6653C42.5658 24.8154 40.5234 29.748 37.7393 34.5757C34.8848 39.5252 31.6165 43.886 28.3805 46.7145C24.2857 50.2938 20.3269 51.5892 18.2538 50.3937C16.2422 49.2344 15.473 45.4327 16.4381 40.3502C17.2535 36.0558 19.2998 30.7849 22.2602 25.6495H22.2612Z" stroke="#00D8FF" stroke-width="2.08852"/>
<path id="Vector_5" d="M22.2684 34.5886C19.3273 29.5088 17.3248 24.3661 16.489 20.0981C15.4828 14.9557 16.1941 11.0241 18.2203 9.85126C20.3318 8.62876 24.3263 10.0467 28.5174 13.7681C31.6861 16.5816 34.9399 20.8137 37.732 25.6367C40.5947 30.5815 42.7402 35.5913 43.5748 39.8072C44.6309 45.1425 43.7761 49.219 41.7049 50.4178C39.6954 51.5813 36.0178 50.3496 32.0965 46.9751C28.7834 44.1241 25.2387 39.7191 22.2684 34.5886Z" stroke="#00D8FF" stroke-width="2.08852"/>
</g>
</svg>
