<svg width="60" height="62" viewBox="0 0 60 62" fill="none" xmlns="http://www.w3.org/2000/svg">
<g id="skill-icons:css" clip-path="url(#clip0_474_241)">
<g id="Group">
<path id="Vector" d="M45.9375 0H14.0625C6.296 0 0 6.50586 0 14.5312V47.4688C0 55.4941 6.296 62 14.0625 62H45.9375C53.704 62 60 55.4941 60 47.4688V14.5312C60 6.50586 53.704 0 45.9375 0Z" fill="#0277BD"/>
<path id="Vector_2" d="M12.5984 24.8608L13.2691 32.5967H30.0225V24.8608H12.5984ZM30.0223 9.20312H11.25L11.9306 16.9391H30.0223V9.20312ZM30.0223 53.0006V44.9519L29.9895 44.9609L21.6518 42.6347L21.1188 36.4647H13.6036L14.6524 48.6114L29.9878 53.0105L30.0223 53.0006Z" fill="#EBEBEB"/>
<path id="Vector_3" d="M39.2152 32.5967L38.3461 42.6296L29.9965 44.9585V53.0066L45.3441 48.6114L45.4566 47.3043L47.2158 26.9383L47.3984 24.8608L48.75 9.20312H29.9965V16.9391H40.5455L39.8644 24.8608H29.9965V32.5967H39.2152Z" fill="white"/>
</g>
</g>
<defs>
<clipPath id="clip0_474_241">
<rect width="60" height="62" fill="white"/>
</clipPath>
</defs>
</svg>
