<svg width="60" height="62" viewBox="0 0 60 62" fill="none" xmlns="http://www.w3.org/2000/svg">
<g id="skill-icons:figma-dark" clip-path="url(#clip0_474_287)">
<g id="Group">
<path id="Vector" d="M45.9375 0H14.0625C6.296 0 0 6.50586 0 14.5312V47.4688C0 55.4941 6.296 62 14.0625 62H45.9375C53.704 62 60 55.4941 60 47.4688V14.5312C60 6.50586 53.704 0 45.9375 0Z" fill="#242938"/>
<g id="Clip path group">
<mask id="mask0_474_287" style="mask-type:luminance" maskUnits="userSpaceOnUse" x="14" y="6" width="32" height="50">
<g id="skillIconsFigmaDark0">
<path id="Vector_2" d="M14.2969 6.78125H45.5531V55.2188H14.2969V6.78125Z" fill="white"/>
</g>
</mask>
<g mask="url(#mask0_474_287)">
<g id="Group_2">
<path id="Vector_3" d="M22.1126 55.2188C26.4251 55.2188 29.925 51.6022 29.925 47.146V39.0729H22.1126C17.8001 39.0729 14.2999 42.6897 14.2999 47.146C14.2999 51.6022 17.8001 55.2188 22.1126 55.2188Z" fill="#0ACF83"/>
<path id="Vector_4" d="M14.2999 31C14.2999 26.5437 17.8001 22.9271 22.1126 22.9271H29.925V39.0728H22.1126C17.8001 39.0728 14.2999 35.4562 14.2999 31Z" fill="#A259FF"/>
<path id="Vector_5" d="M14.2999 14.8541C14.2999 10.3978 17.8001 6.78125 22.1126 6.78125H29.925V22.9272H22.1126C17.8001 22.9272 14.2999 19.3103 14.2999 14.8541Z" fill="#F24E1E"/>
<path id="Vector_6" d="M29.925 6.78125H37.7374C42.0499 6.78125 45.5501 10.3978 45.5501 14.8541C45.5501 19.3103 42.0499 22.9272 37.7374 22.9272H29.925V6.78125Z" fill="#FF7262"/>
<path id="Vector_7" d="M45.5501 31C45.5501 35.4562 42.0499 39.0728 37.7374 39.0728C33.4249 39.0728 29.925 35.4562 29.925 31C29.925 26.5437 33.4249 22.9271 37.7374 22.9271C42.0499 22.9271 45.5501 26.5437 45.5501 31Z" fill="#1ABCFE"/>
</g>
</g>
</g>
</g>
</g>
<defs>
<clipPath id="clip0_474_287">
<rect width="60" height="62" fill="white"/>
</clipPath>
</defs>
</svg>
