<svg width="60" height="62" viewBox="0 0 60 62" fill="none" xmlns="http://www.w3.org/2000/svg">
<g id="skill-icons:git" clip-path="url(#clip0_474_299)">
<g id="Group">
<path id="Vector" d="M45.9375 0H14.0625C6.296 0 0 6.50586 0 14.5312V47.4688C0 55.4941 6.296 62 14.0625 62H45.9375C53.704 62 60 55.4941 60 47.4688V14.5312C60 6.50586 53.704 0 45.9375 0Z" fill="#F03C2E"/>
<g id="Clip path group">
<mask id="mask0_474_299" style="mask-type:luminance" maskUnits="userSpaceOnUse" x="6" y="6" width="48" height="50">
<g id="skillIconsGit0">
<path id="Vector_2" d="M6.5625 6.78125H53.4375V55.2188H6.5625V6.78125Z" fill="white"/>
</g>
</mask>
<g mask="url(#mask0_474_299)">
<g id="Group_2">
<path id="Vector_3" d="M52.5527 28.8431L32.0873 7.69556C31.6654 7.25903 31.1276 6.96173 30.542 6.84131C29.9564 6.7209 29.3494 6.78278 28.7979 7.01913C28.4317 7.17594 28.099 7.4058 27.8189 7.69556L23.5708 12.0852L28.9615 17.6555C30.2154 17.2014 31.6509 17.5117 32.6498 18.5441C33.1254 19.0364 33.4573 19.657 33.6078 20.3349C33.7583 21.0129 33.7212 21.7209 33.5008 22.3782L38.6967 27.7472C39.9537 27.2992 41.4037 27.5881 42.4071 28.6281C42.9097 29.1472 43.2519 29.8088 43.3905 30.529C43.529 31.2492 43.4577 31.9957 43.1855 32.6741C42.8205 33.5835 42.121 34.3059 41.2407 34.6825C40.3604 35.0591 39.3714 35.0591 38.4912 34.6825C38.0552 34.4958 37.6591 34.2224 37.3256 33.8775C36.2709 32.7876 36.0103 31.1831 36.5435 29.8405L31.6978 24.8332V38.0099C32.0496 38.1897 32.371 38.4269 32.6498 38.7123C33.3235 39.4084 33.702 40.3525 33.702 41.337C33.702 42.3214 33.3235 43.2656 32.6498 43.9617C31.9762 44.6578 31.0625 45.0489 30.1098 45.0489C29.1571 45.0489 28.2434 44.6578 27.5698 43.9617C27.0669 43.4428 26.7245 42.7814 26.5857 42.0612C26.4469 41.341 26.5181 40.5945 26.7902 39.9162C26.9709 39.4658 27.2358 39.0567 27.5698 38.7123C27.9169 38.355 28.3022 38.084 28.7461 37.9024V24.6031C28.3056 24.4171 27.9057 24.1418 27.5698 23.7935C27.0654 23.2729 26.7225 22.6089 26.5847 21.8861C26.447 21.1633 26.5207 20.4145 26.7963 19.7352L21.4791 14.2438L7.44585 28.7295C7.02339 29.1658 6.73565 29.7217 6.61904 30.327C6.50243 30.9323 6.5622 31.5597 6.79077 32.1299C6.94267 32.5084 7.16527 32.8523 7.44585 33.142L27.9126 54.2878C28.1928 54.5775 28.5255 54.8074 28.8916 54.9643C29.6314 55.2807 30.4624 55.2807 31.2021 54.9643C31.5682 54.8074 31.9009 54.5775 32.1811 54.2878L52.5527 33.2706C52.8332 32.9809 53.0557 32.637 53.2076 32.2585C53.3594 31.88 53.4376 31.4742 53.4377 31.0645C53.4377 30.6547 53.3596 30.2489 53.2077 29.8703C53.0559 29.4917 52.8333 29.1478 52.5527 28.8581" fill="white"/>
</g>
</g>
</g>
</g>
</g>
<defs>
<clipPath id="clip0_474_299">
<rect width="60" height="62" fill="white"/>
</clipPath>
</defs>
</svg>
