<svg width="60" height="62" viewBox="0 0 60 62" fill="none" xmlns="http://www.w3.org/2000/svg">
<g id="skill-icons:tailwindcss-dark" clip-path="url(#clip0_474_325)">
<g id="Group">
<path id="Vector" d="M45.9375 0H14.0625C6.296 0 0 6.50586 0 14.5312V47.4688C0 55.4941 6.296 62 14.0625 62H45.9375C53.704 62 60 55.4941 60 47.4688V14.5312C60 6.50586 53.704 0 45.9375 0Z" fill="#242938"/>
<path id="Vector_2" fill-rule="evenodd" clip-rule="evenodd" d="M19.4531 26.6406C20.8594 20.8281 24.3752 17.9219 30 17.9219C38.4375 17.9219 39.4922 24.4609 43.7109 25.5508C46.5237 26.2776 48.9844 25.1877 51.0938 22.2812C49.6877 28.0935 46.1716 31 40.5469 31C32.1094 31 31.0547 24.4609 26.8359 23.3711C24.0232 22.6445 21.5625 23.7344 19.4531 26.6406ZM8.90625 39.7188C10.3125 33.9065 13.8281 31 19.4531 31C27.8906 31 28.9453 37.5391 33.1641 38.6289C35.9768 39.3557 38.4375 38.2659 40.5469 35.3594C39.1409 41.1716 35.6248 44.0781 30 44.0781C21.5625 44.0781 20.5078 37.5391 16.2891 36.4492C13.4766 35.7224 11.0156 36.8123 8.90625 39.7188Z" fill="url(#paint0_linear_474_325)"/>
</g>
</g>
<defs>
<linearGradient id="paint0_linear_474_325" x1="20.2734" y1="17.9219" x2="39.1308" y2="44.3474" gradientUnits="userSpaceOnUse">
<stop stop-color="#32B1C1"/>
<stop offset="1" stop-color="#14C6B7"/>
</linearGradient>
<clipPath id="clip0_474_325">
<rect width="60" height="62" fill="white"/>
</clipPath>
</defs>
</svg>
