<svg width="60" height="62" viewBox="0 0 60 62" fill="none" xmlns="http://www.w3.org/2000/svg">
<g id="logos:adobe-xd" clip-path="url(#clip0_474_279)">
<path id="Vector" d="M50.0391 0H9.96094C4.45966 0 0 4.71892 0 10.54V51.3608C0 57.1819 4.45966 61.9008 9.96094 61.9008H50.0391C55.5403 61.9008 60 57.1819 60 51.3608V10.54C60 4.71892 55.5403 0 50.0391 0Z" fill="#470137"/>
<path id="Vector_2" d="M31.5417 16.2787L24.0551 29.354L32.0648 43.2383C32.1164 43.3355 32.1307 43.4496 32.1051 43.5577C32.0927 43.6038 32.066 43.6153 32.025 43.617L31.9795 43.6162L31.9242 43.6148C31.8942 43.6148 31.8607 43.6162 31.8234 43.6227H26.0484L25.935 43.6207C25.6237 43.612 25.3994 43.5649 25.2628 43.3234C24.7285 42.2219 24.1917 41.1216 23.6526 40.0227C23.1704 39.0426 22.6751 38.0697 22.1667 37.1045L21.9422 36.6794C21.3342 35.536 20.7371 34.386 20.1511 33.2298H20.1108C19.5696 34.3739 19.0127 35.5097 18.4404 36.6368C17.8631 37.7726 17.2929 38.9015 16.7297 40.0227C16.1661 41.1448 15.5892 42.2593 14.9991 43.366C14.9041 43.5917 14.7464 43.6388 14.5268 43.6465L14.4354 43.648H8.92124L8.89734 43.6487L8.81859 43.6562C8.77476 43.6589 8.74851 43.649 8.74007 43.579C8.72494 43.4752 8.74647 43.3691 8.80054 43.2809L16.5687 29.7798L9.00163 16.2366C8.92124 16.1235 8.90788 16.0312 8.96132 15.9598C8.99102 15.9234 9.02832 15.8948 9.07026 15.8763C9.11219 15.8578 9.15763 15.8499 9.20296 15.8531H14.8781C15.0019 15.846 15.1256 15.8678 15.2405 15.9171C15.3366 15.9749 15.4193 16.055 15.4819 16.1515C15.9649 17.2873 16.5016 18.4232 17.092 19.5585C17.6778 20.6867 18.2749 21.8083 18.8831 22.9231C19.482 24.0207 20.0393 25.1431 20.5535 26.2877H20.5938C21.1208 25.1434 21.6643 24.0076 22.2239 22.8807C22.7735 21.7734 23.3372 20.6586 23.9142 19.5372C24.4839 18.4301 25.0408 17.3157 25.5846 16.1941C25.6155 16.089 25.6709 15.9938 25.7456 15.9171C25.845 15.8639 25.9567 15.8417 26.0676 15.8531H31.3404C31.3889 15.8404 31.4399 15.8446 31.486 15.8652C31.532 15.8857 31.5704 15.9216 31.5955 15.9673C31.6207 16.013 31.6311 16.0661 31.6252 16.1186C31.6193 16.1711 31.5975 16.2201 31.563 16.2584L31.5419 16.2792L31.5417 16.2787ZM43.3706 44.172L43.0931 44.1752C41.2405 44.2051 39.4048 43.7978 37.7196 42.9829C36.1497 42.214 34.8374 40.959 33.9562 39.3839C33.0677 37.8225 32.6116 35.8767 32.5887 33.5472L32.5877 33.3575C32.5727 31.4028 33.0448 29.4784 33.9565 27.7782C34.8689 26.0955 36.1991 24.709 37.803 23.7691L37.9411 23.6897C39.6848 22.6674 41.7914 22.1563 44.2603 22.1563L44.3681 22.1575L44.4914 22.1618L44.6297 22.1682L44.7834 22.1776L45.0417 22.197L45.3342 22.2218L45.5482 22.2416V13.8513C45.5482 13.6529 45.6288 13.5532 45.7896 13.5532H50.8612C50.894 13.5482 50.9275 13.5514 50.9589 13.5625C50.9903 13.5735 51.0189 13.5922 51.0423 13.617C51.0658 13.6418 51.0834 13.672 51.0939 13.7053C51.1044 13.7385 51.1073 13.7739 51.1026 13.8086V38.9794C51.1026 39.402 51.1181 39.8573 51.1491 40.3444L51.2241 41.4492L51.2639 42.0883C51.2689 42.1768 51.2484 42.2649 51.2053 42.3409C51.1622 42.4169 51.0984 42.4774 51.0223 42.5144C49.7139 43.0917 48.3511 43.5199 46.957 43.7918C45.7735 44.023 44.5739 44.1501 43.3706 44.172ZM45.5482 38.8941V27.2671C45.3307 27.2048 45.1085 27.162 44.8842 27.1394C44.61 27.1102 44.3346 27.0959 44.059 27.0967C43.0823 27.0865 42.117 27.32 41.2416 27.7782C40.3888 28.2267 39.6607 28.9018 39.1284 29.7374C38.5971 30.5598 38.3222 31.6336 38.3041 32.9589L38.3032 33.102C38.2836 34.0304 38.4269 34.9545 38.7258 35.8276C38.9691 36.5312 39.3537 37.1706 39.8531 37.7017C40.3311 38.1903 40.9097 38.5547 41.5434 38.7664C42.2129 38.9957 42.9126 39.1108 43.6162 39.1074C43.9917 39.1074 44.3405 39.093 44.6627 39.0645C44.9198 39.044 45.1745 38.9992 45.424 38.9305L45.5482 38.8941Z" fill="#FF61F6"/>
</g>
<defs>
<clipPath id="clip0_474_279">
<rect width="60" height="62" fill="white"/>
</clipPath>
</defs>
</svg>
