<svg width="60" height="62" viewBox="0 0 60 62" fill="none" xmlns="http://www.w3.org/2000/svg">
<g id="skill-icons:html" clip-path="url(#clip0_474_246)">
<g id="Group">
<path id="Vector" d="M45.9375 0H14.0625C6.296 0 0 6.50586 0 14.5312V47.4688C0 55.4941 6.296 62 14.0625 62H45.9375C53.704 62 60 55.4941 60 47.4688V14.5312C60 6.50586 53.704 0 45.9375 0Z" fill="#E14E1D"/>
<path id="Vector_2" d="M11.25 9.20312L13.268 32.5967H39.2156L38.3449 42.6306L29.9904 44.9648L21.6516 42.634L21.094 36.1913H13.5797L14.6543 48.6109L29.9888 53.0119L45.3427 48.6109L47.4012 24.8618H20.115L19.4299 16.9398H48.0795L48.75 9.20312H11.25Z" fill="white"/>
<path id="Vector_3" d="M30 9.20312H11.25L13.268 32.5967H30V24.8618H20.115L19.4299 16.9398H30V9.20312ZM30 44.9614L29.9904 44.9648L21.6516 42.634L21.094 36.1913H13.5797L14.6543 48.6109L29.9888 53.0119L30.0002 53.0085V44.9614H30Z" fill="#EBEBEB"/>
</g>
</g>
<defs>
<clipPath id="clip0_474_246">
<rect width="60" height="62" fill="white"/>
</clipPath>
</defs>
</svg>
