<svg width="60" height="62" viewBox="0 0 60 62" fill="none" xmlns="http://www.w3.org/2000/svg">
<g id="skill-icons:sass" clip-path="url(#clip0_474_251)">
<g id="Group">
<path id="Vector" d="M45.9375 0H14.0625C6.296 0 0 6.50586 0 14.5312V47.4688C0 55.4941 6.296 62 14.0625 62H45.9375C53.704 62 60 55.4941 60 47.4688V14.5312C60 6.50586 53.704 0 45.9375 0Z" fill="#CD6799"/>
<g id="Clip path group">
<mask id="mask0_474_251" style="mask-type:luminance" maskUnits="userSpaceOnUse" x="6" y="12" width="48" height="38">
<g id="skillIconsSass0">
<path id="Vector_2" d="M6.5625 12.8359H53.4375V49.142H6.5625V12.8359Z" fill="white"/>
</g>
</mask>
<g mask="url(#mask0_474_251)">
<g id="Group_2">
<path id="Vector_3" d="M46.9001 33.7036C45.2655 33.7123 43.8452 34.1192 42.6558 34.7203C42.2194 33.8274 41.783 33.0315 41.7059 32.4479C41.6203 31.7671 41.5177 31.3515 41.6203 30.538C41.723 29.7245 42.1852 28.5663 42.1765 28.4779C42.168 28.3893 42.0738 27.9739 41.1326 27.965C40.1913 27.9562 39.3785 28.1507 39.2843 28.4072C39.1901 28.6634 39.0105 29.2471 38.8908 29.8485C38.7281 30.7327 37.008 33.8894 36.0241 35.5428C35.7075 34.8973 35.4337 34.3313 35.3737 33.8804C35.2882 33.1996 35.1855 32.784 35.2882 31.9705C35.3909 31.157 35.853 29.9986 35.8444 29.9102C35.8359 29.8218 35.7417 29.4062 34.8005 29.3975C33.8592 29.3885 33.0462 29.583 32.9522 29.8395C32.858 30.096 32.7553 30.6973 32.5584 31.2808C32.3618 31.8644 30.0771 37.1344 29.478 38.496C29.236 39.047 28.9821 39.5924 28.7166 40.1317C28.7166 40.1317 28.7079 40.1584 28.6823 40.2025C28.5988 40.3716 28.5132 40.5396 28.4255 40.7064V40.7154C28.2973 40.9542 28.1602 41.1751 28.0917 41.1751C28.0404 41.1751 27.9464 40.5386 28.1088 39.6721C28.4512 37.8416 29.2641 34.9945 29.2556 34.8973C29.2556 34.8443 29.4096 34.349 28.725 34.0925C28.0575 33.8361 27.818 34.2606 27.758 34.2606C27.6982 34.2606 27.6553 34.411 27.6553 34.411C27.6553 34.411 28.3999 31.21 26.235 31.21C24.8829 31.21 23.0175 32.7397 22.0936 34.1192C21.0429 34.7099 19.9932 35.3023 18.9443 35.8964C18.4397 36.1882 17.9177 36.48 17.4298 36.7542C17.3955 36.7188 17.3613 36.6745 17.3271 36.6392C14.7087 33.7477 9.86554 31.7053 10.0709 27.8235C10.148 26.4087 10.6186 22.695 19.3723 18.1854C26.5772 14.516 32.3105 15.5328 33.303 17.7875C34.7234 21.0062 30.2311 26.9834 22.7866 27.8499C19.9455 28.1771 18.4568 27.0454 18.0804 26.6211C17.6866 26.1788 17.6266 26.1524 17.4811 26.2408C17.2416 26.3733 17.3955 26.7712 17.4811 27.0011C17.7037 27.6024 18.6192 28.6634 20.168 29.1851C21.5372 29.645 24.8658 29.9015 28.8961 28.2922C33.4057 26.4883 36.9312 21.4746 35.8957 17.2748C34.8605 13.0128 28.0148 11.6069 21.5372 13.9854C17.6864 15.4003 13.5108 17.6284 10.5073 20.5286C6.9389 23.9773 6.37429 26.9747 6.60539 28.2302C7.43531 32.6867 13.3823 35.5868 15.7612 37.7355C15.6415 37.8063 15.5302 37.8683 15.4362 37.9213C14.2467 38.5314 9.71156 40.9806 8.58187 43.5715C7.29843 46.5071 8.78742 48.6114 9.77132 48.8943C12.8262 49.7698 15.9666 48.1959 17.6524 45.5962C19.338 42.9966 19.1327 39.619 18.3539 38.0717C18.3456 38.0521 18.334 38.0341 18.3197 38.0187C18.6279 37.8329 18.9443 37.6384 19.2525 37.4527C19.8188 37.1069 20.3922 36.7737 20.9723 36.4534C20.6815 37.2759 20.4675 38.2572 20.3648 39.6721C20.2366 41.3344 20.8955 43.4918 21.7596 44.3407C22.1447 44.712 22.5982 44.7209 22.8893 44.7209C23.899 44.7209 24.3525 43.8544 24.8573 42.8287C25.4733 41.573 26.0297 40.1141 26.0297 40.1141C26.0297 40.1141 25.3364 44.0578 27.2189 44.0578C27.9035 44.0578 28.5966 43.1383 28.9048 42.6696V42.6783C28.9048 42.6783 28.9219 42.6519 28.9561 42.5899C29.0245 42.4749 29.0672 42.4042 29.0672 42.4042V42.3865C29.3412 41.8915 29.9571 40.7684 30.8728 38.9026C32.0536 36.4977 33.1917 33.4914 33.1917 33.4914C33.1917 33.4914 33.2944 34.2253 33.6452 35.4454C33.8505 36.1618 34.2785 36.9487 34.6207 37.7091C34.3469 38.107 34.1759 38.3279 34.1759 38.3279L34.1843 38.3369C33.9619 38.6374 33.7223 38.9646 33.457 39.2829C32.5242 40.4325 31.4119 41.75 31.2579 42.1303C31.0781 42.5812 31.121 42.9082 31.4632 43.1736C31.7114 43.3681 32.1562 43.3945 32.6098 43.3681C33.4484 43.3061 34.039 43.0939 34.3298 42.9612C34.7834 42.7934 35.314 42.5369 35.8102 42.1567C36.7259 41.4582 37.282 40.4589 37.2307 39.1414C37.2049 38.4163 36.9738 37.6915 36.6916 37.0104C36.7772 36.8867 36.8541 36.7629 36.9396 36.6392C38.3859 34.4551 39.5067 32.0589 39.5067 32.0589C39.5067 32.0589 39.6094 32.7927 39.9602 34.0131C40.1313 34.6319 40.4822 35.304 40.7904 35.9584C39.4298 37.0991 38.5912 38.4253 38.2917 39.2918C37.7527 40.9012 38.1719 41.626 38.9677 41.7941C39.3272 41.8738 39.8405 41.697 40.2171 41.5289C40.6962 41.3698 41.261 41.0956 41.8001 40.6888C42.7155 39.9903 43.597 39.0177 43.5457 37.7002C43.5199 37.0991 43.3659 36.5064 43.152 35.9317C44.3072 35.4367 45.7962 35.1625 47.6958 35.3924C51.769 35.8876 52.5734 38.5137 52.4191 39.619C52.2652 40.7241 51.4095 41.3255 51.127 41.5112C50.8448 41.697 50.7506 41.7588 50.7764 41.8915C50.8106 42.0859 50.9475 42.077 51.187 42.0416C51.5208 41.9799 53.3262 41.1487 53.4033 39.115C53.5317 36.5154 51.1357 33.677 46.9001 33.7036ZM15.4788 44.6502C14.1269 46.1709 12.2444 46.7459 11.4314 46.2596C10.5586 45.7377 10.9008 43.4918 12.5611 41.8825C13.5705 40.9012 14.8713 39.9903 15.7355 39.4333C15.9323 39.3095 16.2232 39.1327 16.5741 38.9116C16.6341 38.8762 16.6683 38.8586 16.6683 38.8586L16.8736 38.7258C17.4811 41.0249 16.8991 43.0499 15.4788 44.6502ZM25.3193 37.7355C24.8487 38.9206 23.8648 41.9532 23.2657 41.7854C22.7524 41.6437 22.4358 39.3449 23.163 37.0724C23.531 35.9317 24.3096 34.5701 24.7631 34.0395C25.4991 33.1906 26.3119 32.9078 26.5087 33.2526C26.7569 33.7036 25.6104 36.9927 25.3193 37.7355ZM33.4399 41.75C33.243 41.8561 33.0548 41.9268 32.9693 41.8738C32.9093 41.8384 33.0548 41.697 33.0548 41.697C33.0548 41.697 34.0732 40.565 34.4754 40.0523C34.7062 39.7515 34.9802 39.3979 35.2711 39V39.115C35.2711 40.4679 34.0048 41.3785 33.4399 41.75ZM39.7036 40.2732C39.558 40.1671 39.5838 39.8135 40.0716 38.7082C40.2598 38.2749 40.7048 37.55 41.4663 36.8513C41.5519 37.1344 41.6119 37.4083 41.6032 37.6648C41.5948 39.3715 40.4137 40.008 39.7036 40.2732Z" fill="white"/>
</g>
</g>
</g>
</g>
</g>
<defs>
<clipPath id="clip0_474_251">
<rect width="60" height="62" fill="white"/>
</clipPath>
</defs>
</svg>
