<svg width="60" height="62" viewBox="0 0 60 62" fill="none" xmlns="http://www.w3.org/2000/svg">
<g id="skill-icons:javascript" clip-path="url(#clip0_474_259)">
<g id="Group">
<path id="Vector" d="M45.9375 0H14.0625C6.296 0 0 6.50586 0 14.5312V47.4688C0 55.4941 6.296 62 14.0625 62H45.9375C53.704 62 60 55.4941 60 47.4688V14.5312C60 6.50586 53.704 0 45.9375 0Z" fill="#F0DB4F"/>
<path id="Vector_2" d="M15.7762 51.8117L20.3676 48.9403C21.2536 50.5632 22.0594 51.9364 23.9923 51.9364C25.845 51.9364 27.0131 51.1876 27.0131 48.2746V28.4641H32.6517V48.3569C32.6517 54.3915 29.2284 57.1384 24.2339 57.1384C19.7233 57.1384 17.1051 54.7245 15.776 51.8112M35.7143 51.1874L40.3052 48.4407C41.5139 50.4802 43.0847 51.9783 45.8634 51.9783C48.1999 51.9783 49.6896 50.7713 49.6896 49.1065C49.6896 47.1089 48.1591 46.4012 45.5815 45.2363L44.1722 44.6117C40.1041 42.8224 37.4055 40.5749 37.4055 35.8305C37.4055 31.4605 40.6277 28.1309 45.6623 28.1309C49.2469 28.1309 51.8245 29.4212 53.677 32.7922L49.2869 35.7055C48.3201 33.916 47.2734 33.2086 45.6623 33.2086C44.0109 33.2086 42.9637 34.2907 42.9637 35.7055C42.9637 37.4534 44.0109 38.1611 46.4273 39.2434L47.8369 39.8675C52.6296 41.9903 55.3282 44.154 55.3282 49.0232C55.3282 54.2675 51.341 57.1389 45.9844 57.1389C40.7487 57.1389 37.3655 54.5586 35.7143 51.1874Z" fill="#323330"/>
</g>
</g>
<defs>
<clipPath id="clip0_474_259">
<rect width="60" height="62" fill="white"/>
</clipPath>
</defs>
</svg>
