<svg width="60" height="62" viewBox="0 0 60 62" fill="none" xmlns="http://www.w3.org/2000/svg">
<g id="vscode-icons:file-type-eleventy">
<rect width="60" height="62" rx="10" fill="#4A3A2B"/>
<path id="Vector" d="M19.8956 46.5523C19.4794 46.5523 19.2713 45.9788 19.2713 44.8279V16.4261C19.2713 15.8778 19.1663 15.6201 18.9488 15.655C17.6363 15.9979 16.9763 16.1704 16.9575 16.1704C16.5938 16.2033 16.4138 15.8255 16.4138 15.0389V12.5685C16.4138 11.8865 16.6125 11.501 17.0081 11.4138L23.5763 9.66811C23.6493 9.64992 23.7243 9.64146 23.7994 9.64292C24.1631 9.64292 24.3431 10.044 24.3431 10.85V44.8337C24.3431 45.9827 24.1256 46.5562 23.6963 46.5562L19.8956 46.5523ZM36.9075 46.6046C36.2419 46.6046 35.67 46.5562 35.1788 46.4612C34.6361 46.3436 34.1184 46.1257 33.6506 45.818C33.1131 45.4762 32.6645 45.004 32.3438 44.4424C32.0025 43.8611 31.725 43.0435 31.5113 41.9992C31.2994 40.9529 31.1888 39.7129 31.1888 38.2714V25.0887C31.1888 24.7457 31.095 24.5733 30.9169 24.5733H29.3738C28.9575 24.5733 28.7494 24.1625 28.7494 23.343V21.9538C28.7494 21.1129 28.9575 20.6944 29.3738 20.6944H30.9169C31.0969 20.6944 31.1888 20.4639 31.1888 20.0008L31.6369 10.0033C31.6875 9.09461 31.8994 8.64124 32.2838 8.64124H34.7738C35.1881 8.64124 35.3963 9.09461 35.3963 10.0033V20.0008C35.3963 20.4658 35.4938 20.6925 35.6963 20.6925H38.8706C39.285 20.6925 39.4931 21.1129 39.4931 21.9519V23.343C39.4931 24.1625 39.2869 24.5733 38.8706 24.5733H35.6869C35.5725 24.5733 35.4938 24.6024 35.4525 24.6644C35.4094 24.7225 35.3925 24.8659 35.3925 25.0906V38.3528C35.3925 39.3448 35.4525 40.176 35.5763 40.8347C35.7019 41.4935 35.8819 41.9798 36.12 42.2859C36.3619 42.5901 36.6019 42.8013 36.8419 42.902C37.0819 43.0067 37.3781 43.0532 37.7231 43.0532H39.4894C39.9375 43.0532 40.1588 43.3729 40.1588 44.0025V45.5448C40.1588 46.2462 39.9188 46.6007 39.4388 46.6007L36.9075 46.6046ZM46.4531 49.6872C46.8319 49.6872 47.1656 49.3675 47.4469 48.7242C47.7281 48.079 47.8725 47.1684 47.8725 45.9846C47.8725 45.7075 47.7056 44.7582 47.3738 43.1307L42.495 22.1824C42.4664 21.9945 42.4494 21.8049 42.4444 21.6147C42.4444 20.9986 42.57 20.6886 42.8194 20.6886H45.8306C46.0613 20.6886 46.2506 20.77 46.4025 20.9308C46.5563 21.0935 46.6706 21.4229 46.7494 21.9189L49.9838 39.6025C50.0475 39.8079 50.0888 39.9125 50.1075 39.9125C50.1731 39.9125 50.2088 39.8156 50.2088 39.6315L52.7456 21.9964C52.8094 21.481 52.9144 21.1362 53.055 20.956C53.117 20.8703 53.1977 20.8011 53.2906 20.7539C53.3835 20.7068 53.4859 20.6831 53.5894 20.6847H55.6781C55.9594 20.6847 56.1038 21.018 56.1038 21.6864C56.1038 21.8375 56.085 22.039 56.0513 22.2774L51.6225 46.1086C51.2756 48.0791 50.8913 49.5884 50.4788 50.6327C50.0606 51.6789 49.5994 52.39 49.0819 52.7659C48.57 53.1437 47.8913 53.3394 47.04 53.3587H46.7906C45.4463 53.3587 44.5369 52.9906 44.0569 52.2505C43.9238 52.0994 43.8581 51.7022 43.8581 51.0686C43.8581 49.7976 44.0569 49.1641 44.4544 49.1641C44.4863 49.1641 44.7863 49.2493 45.3506 49.4217C45.9225 49.6019 46.2881 49.6872 46.4531 49.6872ZM7.37813 46.6007C6.96376 46.6007 6.75563 46.0272 6.75563 44.8764V16.4726C6.75563 15.9243 6.64876 15.6666 6.43126 15.6995C5.11876 16.0444 4.46063 16.2149 4.44188 16.2149C4.07626 16.2479 3.89813 15.872 3.89813 15.0834V12.617C3.89813 11.935 4.09501 11.5475 4.49251 11.4622L11.0625 9.71074C11.1349 9.69256 11.2093 9.6841 11.2838 9.68555C11.6494 9.68555 11.8294 10.0866 11.8294 10.8945V44.8764C11.8294 46.0253 11.6119 46.5988 11.1825 46.5988H7.37626L7.37813 46.6007Z" fill="#FEF6E1"/>
</g>
</svg>
