<svg width="60" height="62" viewBox="0 0 60 62" fill="none" xmlns="http://www.w3.org/2000/svg">
<g id="skill-icons:typescript" clip-path="url(#clip0_474_321)">
<g id="Group">
<path id="Vector" d="M45.9375 0H14.0625C6.296 0 0 6.50586 0 14.5312V47.4688C0 55.4941 6.296 62 14.0625 62H45.9375C53.704 62 60 55.4941 60 47.4688V14.5312C60 6.50586 53.704 0 45.9375 0Z" fill="#007ACC"/>
<path id="Vector_2" d="M13.2682 31.2056L13.2492 33.7447H21.0586V56.6748H26.5828V33.7447H34.3922V31.2548C34.3922 29.877 34.3638 28.7256 34.3256 28.6961C34.297 28.6568 29.5446 28.637 23.7827 28.6469L13.297 28.6765L13.2682 31.2056ZM48.4141 28.6043C49.9378 28.9981 51.0998 29.6968 52.1665 30.8382C52.7189 31.4485 53.5378 32.5607 53.6046 32.8263C53.6236 32.9051 51.0141 34.7159 49.4332 35.7294C49.376 35.7689 49.1473 35.5129 48.8902 35.1194C48.1188 33.9581 47.3093 33.456 46.0711 33.3676C44.2521 33.2395 43.0807 34.2238 43.0903 35.8672C43.0903 36.3494 43.1569 36.6347 43.3474 37.0285C43.7473 37.8847 44.4902 38.3964 46.8237 39.4395C51.1188 41.3489 52.9568 42.6085 54.0998 44.3995C55.376 46.3973 55.6617 49.586 54.795 51.9577C53.8427 54.536 51.4807 56.2878 48.1568 56.8685C47.1284 57.0555 44.6902 57.026 43.5855 56.8194C41.1759 56.3764 38.8903 55.1463 37.4808 53.5324C36.9284 52.9025 35.8521 51.259 35.9189 51.1408C35.9473 51.1016 36.195 50.9441 36.4711 50.7768C36.7378 50.6194 37.7475 50.019 38.6998 49.4482L40.4236 48.4147L40.7855 48.966C41.2903 49.763 42.3949 50.8555 43.0617 51.2195C44.9759 52.2629 47.6046 52.1151 48.8998 50.9146C49.4522 50.3929 49.6807 49.8516 49.6807 49.0546C49.6807 48.336 49.5949 48.0212 49.2331 47.4799C48.7664 46.7911 47.8141 46.2103 45.1092 44.9999C42.0141 43.6221 40.6807 42.766 39.4617 41.4078C38.757 40.6207 38.0902 39.3608 37.8141 38.3078C37.5855 37.432 37.5284 35.2373 37.7093 34.3516C38.3473 31.2616 40.6045 29.1063 43.8616 28.4665C44.9189 28.2599 47.3759 28.3386 48.4141 28.6043Z" fill="white"/>
</g>
</g>
<defs>
<clipPath id="clip0_474_321">
<rect width="60" height="62" fill="white"/>
</clipPath>
</defs>
</svg>
